{"glyphs":{":":{"x_min":0,"x_max":147,"ha":147,"o":"m 95 412 b 94 433 96 456 91 476 b 88 490 60 503 55 483 b 50 463 51 441 50 421 b 49 395 97 384 95 412 z m 97 -154 b 95 -137 93 -120 91 -103 b 90 -92 83 -72 67 -78 b 66 -78 66 -78 65 -78 b 60 -80 56 -85 56 -91 b 56 -111 56 -131 57 -151 b 57 -177 100 -184 97 -154 z"},"$":{"x_min":0,"x_max":1311,"ha":1311,"o":"m 1150 637 b 1056 763 904 824 751 835 b 755 900 758 966 762 1032 b 766 1093 769 1154 772 1215 b 772 1215 773 1215 773 1215 b 822 1222 873 1223 919 1204 b 970 1181 999 1129 982 1074 b 979 1062 999 1051 1004 1064 b 1025 1125 994 1192 945 1231 b 898 1269 836 1280 775 1277 b 781 1385 785 1493 789 1600 b 789 1614 765 1620 765 1605 b 761 1495 756 1385 749 1275 b 736 1274 723 1272 711 1270 b 547 1241 392 1144 269 1033 b 207 977 150 914 101 846 b 62 791 11 696 97 653 b 136 634 183 648 223 656 b 269 666 313 678 358 691 b 452 717 547 742 645 751 b 668 753 692 754 715 754 b 689 364 668 -27 687 -418 b 690 -478 693 -537 698 -596 b 639 -642 574 -678 504 -697 b 463 -707 416 -710 376 -694 b 331 -677 309 -636 299 -591 b 275 -488 291 -373 317 -272 b 372 -62 494 111 601 297 b 614 320 578 349 562 327 b 454 176 355 8 294 -167 b 264 -255 244 -346 238 -439 b 233 -517 235 -607 278 -675 b 370 -819 569 -767 690 -696 b 695 -693 701 -690 706 -686 b 716 -785 730 -883 750 -980 b 757 -1010 808 -1014 803 -978 b 788 -868 773 -759 761 -649 b 874 -563 971 -446 1047 -331 b 1227 -59 1367 346 1150 637 z m 701 837 b 607 837 513 820 422 797 b 377 786 332 774 287 761 b 265 755 242 749 220 744 b 195 738 167 736 143 728 b 142 728 141 728 140 728 b 144 736 146 747 150 754 b 161 773 174 791 187 808 b 215 847 246 884 278 919 b 341 986 414 1044 491 1094 b 568 1145 654 1192 745 1210 b 738 1086 729 961 721 836 b 714 836 707 837 701 837 z m 907 -379 b 861 -437 809 -498 751 -552 b 749 -526 746 -501 745 -475 b 732 -308 728 -141 727 25 b 727 268 735 511 747 753 b 883 747 1017 699 1096 581 b 1198 432 1189 239 1140 73 b 1092 -90 1011 -244 907 -379 z"},"?":{"x_min":0,"x_max":1605,"ha":1605,"o":"m 1508 1500 b 1470 1559 1411 1593 1343 1609 b 1185 1645 1017 1604 868 1549 b 733 1498 604 1431 486 1349 b 365 1265 250 1164 158 1048 b 73 943 -4 786 99 667 b 198 553 379 527 520 529 b 689 532 847 583 985 680 b 998 689 981 711 968 705 b 846 648 707 607 572 598 b 452 589 309 600 204 665 b 152 698 119 745 128 809 b 138 878 178 941 220 994 b 302 1099 402 1191 508 1271 b 614 1350 730 1418 852 1470 b 986 1527 1134 1574 1281 1560 b 1352 1554 1424 1535 1463 1470 b 1499 1408 1498 1334 1489 1265 b 1470 1121 1427 979 1384 840 b 1289 537 1173 232 1170 -90 b 1170 -127 1236 -146 1236 -103 b 1243 219 1355 521 1448 825 b 1494 977 1546 1139 1554 1299 b 1558 1368 1547 1441 1508 1500 z m 1204 -235 b 1174 -251 1172 -308 1166 -338 b 1158 -383 1154 -429 1153 -475 b 1152 -506 1208 -521 1208 -486 b 1208 -442 1210 -398 1215 -354 b 1219 -319 1238 -274 1222 -241 b 1219 -235 1210 -232 1204 -235 z"},"<":{"x_min":0,"x_max":989,"ha":989,"o":"m 931 586 b 886 611 836 599 789 585 b 733 567 678 547 624 525 b 514 480 407 430 304 373 b 254 346 204 318 156 287 b 119 263 66 229 53 185 b 38 135 86 99 129 91 b 185 80 248 86 304 85 b 446 85 592 84 733 105 b 786 113 759 180 715 180 b 580 180 446 169 311 169 b 280 169 249 169 217 170 b 199 170 182 170 164 171 b 162 171 157 171 151 172 b 160 182 170 191 180 199 b 202 216 225 231 249 246 b 352 313 460 373 570 428 b 627 456 686 483 744 509 b 801 534 863 570 927 563 b 943 561 943 579 931 586 z"},"'":{"x_min":0,"x_max":191,"ha":191,"o":"m 84 1300 b 70 1231 56 1162 52 1092 b 48 1030 49 964 80 909 b 87 897 110 896 107 913 b 82 1031 117 1160 140 1274 b 147 1307 91 1334 84 1300 z"},"=":{"x_min":0,"x_max":963,"ha":963,"o":"m 110 481 b 156 477 208 499 253 509 b 312 521 371 530 430 536 b 488 542 545 545 603 544 b 662 543 722 535 781 534 b 821 533 803 586 775 593 b 660 618 532 609 417 594 b 360 586 304 575 248 559 b 221 552 194 543 168 534 b 146 526 120 520 102 504 b 94 497 99 482 110 481 z m 882 407 b 813 419 738 411 669 403 b 595 395 521 384 448 373 b 379 363 311 352 242 338 b 208 332 175 325 141 316 b 112 309 73 304 53 280 b 45 270 56 259 65 256 b 94 249 124 260 153 265 b 189 272 226 280 262 286 b 330 298 399 307 468 316 b 538 325 607 334 677 341 b 748 348 818 344 888 346 b 929 347 913 401 882 407 z"},"a":{"x_min":0,"x_max":347,"ha":347,"o":"m 359 282 b 339 263 328 233 316 209 b 299 176 284 140 261 111 b 250 97 231 78 219 99 b 212 112 212 134 211 148 b 209 186 213 225 215 263 b 218 308 147 333 128 297 b 102 322 62 333 27 318 b -27 295 -33 208 -20 159 b -8 114 34 81 76 117 b 99 136 112 167 122 199 b 124 174 128 150 135 126 b 146 92 173 41 217 47 b 251 52 281 91 297 118 b 308 137 318 157 328 176 b 341 202 354 243 375 262 b 386 272 369 291 359 282 z m 92 198 b 86 183 80 167 71 154 b 66 147 61 141 54 135 b 45 130 41 131 40 140 b 23 160 34 214 42 235 b 54 268 85 305 118 273 b 109 248 101 222 92 198 z"},"L":{"x_min":0,"x_max":1057,"ha":1057,"o":"m 54 -908 b 42 -918 59 -934 70 -928 b 211 -844 349 -756 496 -682 b 592 -633 689 -587 788 -545 b 803 -599 819 -653 837 -706 b 845 -730 888 -737 883 -704 b 873 -642 862 -581 851 -519 b 884 -506 917 -493 950 -481 b 1256 -367 1582 -282 1907 -256 b 2005 -248 2104 -247 2202 -262 b 2268 -272 2403 -286 2418 -370 b 2423 -401 2476 -404 2471 -367 b 2463 -298 2394 -260 2334 -241 b 2249 -214 2160 -202 2072 -199 b 1893 -193 1714 -223 1539 -259 b 1301 -307 1067 -378 842 -470 b 829 -398 816 -326 805 -254 b 781 -105 761 46 747 197 b 741 262 737 327 733 392 b 760 443 791 492 820 541 b 861 610 901 680 941 749 b 1018 881 1092 1015 1159 1153 b 1226 1290 1292 1434 1310 1587 b 1323 1703 1308 1855 1182 1905 b 1047 1958 926 1837 860 1734 b 779 1609 733 1463 699 1319 b 627 1013 622 695 645 383 b 658 201 679 19 708 -161 b 727 -273 748 -386 776 -497 b 701 -529 627 -563 555 -600 b 381 -687 206 -786 54 -908 z m 750 1075 b 768 1219 800 1362 847 1500 b 888 1620 947 1760 1052 1838 b 1112 1882 1183 1884 1234 1827 b 1280 1774 1288 1696 1284 1629 b 1276 1482 1217 1342 1155 1210 b 1085 1060 1005 914 923 771 b 881 700 839 629 798 558 b 775 519 753 480 730 441 b 720 653 723 865 750 1075 z"},"3":{"x_min":0,"x_max":1234,"ha":1234,"o":"m 67 910 b 222 963 378 1010 537 1051 b 614 1072 691 1090 769 1108 b 808 1117 848 1125 888 1133 b 913 1138 937 1141 962 1143 b 964 1143 966 1143 967 1143 b 757 1010 546 878 329 756 b 307 745 310 714 322 697 b 336 676 360 666 385 672 b 581 715 809 750 977 613 b 1145 476 1090 245 992 82 b 939 -4 875 -82 805 -154 b 735 -228 660 -298 575 -354 b 535 -381 492 -404 447 -422 b 425 -430 401 -443 378 -446 b 350 -450 344 -430 342 -406 b 333 -305 405 -203 457 -123 b 588 79 759 245 943 397 b 965 415 932 451 913 434 b 733 275 560 101 423 -97 b 390 -144 358 -194 331 -245 b 307 -293 279 -347 280 -402 b 281 -446 300 -488 341 -508 b 394 -534 462 -512 513 -491 b 622 -448 716 -377 801 -298 b 887 -218 969 -133 1037 -37 b 1171 151 1258 421 1095 618 b 969 771 783 812 597 802 b 756 905 910 1014 1056 1134 b 1069 1145 1066 1166 1052 1174 b 1024 1192 998 1192 966 1183 b 923 1171 881 1159 838 1150 b 750 1131 662 1110 575 1088 b 400 1043 227 990 56 931 b 42 927 55 906 67 910 z"},";":{"x_min":0,"x_max":232,"ha":232,"o":"m 173 395 b 176 418 175 441 173 464 b 172 479 162 492 147 495 b 132 497 120 489 119 475 b 116 449 116 425 119 399 b 122 372 169 364 173 395 z m 113 -70 b 101 -116 88 -163 76 -209 b 65 -252 51 -298 50 -343 b 50 -358 75 -375 85 -359 b 109 -322 122 -277 136 -236 b 151 -191 166 -145 180 -100 b 192 -63 125 -30 113 -70 z"},"J":{"x_min":0,"x_max":1651,"ha":1651,"o":"m 55 1180 b 54 1179 53 1177 52 1176 b 50 1174 50 1170 50 1168 b 55 1154 67 1146 82 1145 b 115 1142 155 1153 187 1159 b 260 1172 332 1190 404 1209 b 553 1250 700 1297 846 1346 b 1011 1401 1176 1458 1342 1509 b 1349 1405 1357 1302 1365 1199 b 1326 1183 1289 1166 1254 1149 b 1098 1075 953 975 831 853 b 577 600 418 238 446 -123 b 459 -298 520 -469 639 -600 b 747 -720 907 -805 1073 -787 b 1236 -770 1355 -645 1413 -498 b 1448 -409 1461 -314 1472 -219 b 1485 -114 1493 -8 1497 98 b 1513 467 1489 836 1462 1205 b 1558 1235 1661 1252 1757 1212 b 1772 1205 1778 1226 1764 1232 b 1667 1273 1561 1263 1460 1233 b 1452 1332 1445 1432 1438 1532 b 1437 1533 1437 1535 1437 1537 b 1535 1565 1633 1591 1732 1614 b 1819 1633 1908 1649 1997 1653 b 2039 1655 2086 1659 2127 1647 b 2157 1638 2195 1597 2158 1570 b 2133 1552 2170 1512 2192 1529 b 2232 1559 2228 1616 2197 1651 b 2156 1699 2084 1698 2026 1697 b 1865 1693 1707 1650 1553 1606 b 1509 1594 1466 1581 1423 1568 b 1415 1577 1403 1584 1390 1587 b 1368 1591 1338 1577 1340 1551 b 1340 1548 1340 1545 1340 1542 b 1101 1465 866 1378 626 1301 b 541 1274 455 1248 368 1225 b 322 1212 276 1201 230 1191 b 205 1186 181 1181 157 1177 b 146 1175 135 1174 125 1172 b 115 1171 81 1171 75 1165 b 84 1175 64 1190 55 1180 z m 1409 -220 b 1398 -384 1374 -583 1236 -694 b 1097 -805 896 -771 759 -676 b 619 -578 529 -423 492 -258 b 413 86 538 459 756 728 b 872 872 1018 990 1180 1081 b 1240 1115 1303 1145 1367 1171 b 1388 903 1410 635 1419 366 b 1425 171 1423 -25 1409 -220 z"},"V":{"x_min":0,"x_max":1530,"ha":1530,"o":"m 1919 1618 b 1822 1494 1737 1361 1659 1224 b 1500 946 1375 650 1261 350 b 1202 197 1151 41 1080 -107 b 1047 -176 1010 -270 942 -312 b 865 -361 780 -306 725 -249 b 618 -137 548 17 495 161 b 437 320 395 484 358 649 b 315 841 280 1035 246 1229 b 230 1317 222 1410 196 1496 b 177 1559 145 1614 79 1633 b 38 1645 43 1587 77 1577 b 139 1558 153 1475 164 1421 b 181 1335 195 1248 211 1162 b 243 985 276 809 316 634 b 354 471 396 308 454 151 b 508 7 577 -139 683 -252 b 727 -299 782 -341 846 -355 b 910 -369 965 -343 1007 -295 b 1112 -174 1179 -24 1241 122 b 1369 422 1493 724 1649 1011 b 1735 1170 1829 1326 1936 1472 b 1989 1544 2044 1616 2103 1684 b 2157 1745 2216 1806 2293 1837 b 2343 1856 2298 1924 2255 1911 b 2108 1867 2009 1734 1919 1618 z"},"\"":{"x_min":0,"x_max":317,"ha":317,"o":"m 59 1170 b 50 1121 47 1073 54 1024 b 59 992 65 940 101 929 b 112 926 123 936 120 947 b 102 1007 106 1082 120 1143 b 128 1178 66 1207 59 1170 z m 266 1242 b 275 1276 215 1306 206 1269 b 176 1157 163 1016 218 909 b 223 899 242 896 243 910 b 246 964 239 1018 241 1072 b 244 1130 252 1186 266 1242 z"},"7":{"x_min":0,"x_max":1076,"ha":1076,"o":"m 63 1193 b 210 1219 346 1283 490 1323 b 558 1342 669 1379 727 1320 b 782 1263 769 1164 756 1094 b 724 919 671 749 617 580 b 539 560 463 536 387 510 b 302 482 217 446 126 442 b 111 442 119 421 131 421 b 201 423 268 443 334 466 b 405 490 476 514 548 534 b 568 540 588 546 608 551 b 566 422 525 294 490 164 b 445 -10 410 -188 403 -368 b 401 -424 501 -452 504 -388 b 516 -57 614 258 704 574 b 723 579 743 583 762 586 b 786 591 993 633 1000 606 b 1004 591 1029 589 1026 607 b 1015 662 905 634 871 629 b 818 623 765 613 712 602 b 716 614 719 626 722 638 b 767 798 817 968 821 1136 b 822 1204 810 1280 760 1331 b 713 1378 643 1380 581 1369 b 400 1339 236 1246 56 1213 b 44 1211 53 1192 63 1193 z"},"S":{"x_min":0,"x_max":1766,"ha":1766,"o":"m 484 194 b 406 96 338 -13 296 -132 b 262 -229 241 -354 317 -437 b 401 -528 536 -515 646 -494 b 775 -471 898 -423 1015 -364 b 1231 -255 1433 -96 1567 108 b 1690 296 1742 552 1596 744 b 1535 824 1444 873 1351 905 b 1367 916 1384 927 1401 937 b 1415 946 1550 1031 1556 1019 b 1566 1001 1599 1008 1588 1029 b 1566 1068 1523 1051 1493 1034 b 1436 1003 1381 970 1326 936 b 1318 931 1310 926 1302 921 b 1178 956 1048 966 919 964 b 784 962 650 947 515 938 b 447 933 378 929 310 929 b 245 929 162 925 115 980 b 69 1034 110 1119 141 1171 b 172 1223 212 1269 254 1311 b 343 1400 450 1473 564 1525 b 773 1619 1109 1685 1257 1453 b 1288 1405 1303 1349 1299 1292 b 1298 1279 1321 1272 1322 1287 b 1331 1386 1284 1478 1213 1544 b 1131 1621 1019 1651 909 1651 b 677 1652 440 1539 268 1389 b 184 1315 101 1227 64 1119 b 47 1071 42 1017 71 972 b 99 929 147 905 196 895 b 258 882 325 887 388 889 b 454 891 521 896 587 902 b 717 912 848 924 978 922 b 1064 921 1163 914 1258 892 b 1176 838 1097 781 1021 720 b 826 565 640 389 484 194 z m 1606 617 b 1676 381 1528 154 1368 -6 b 1195 -178 978 -309 745 -381 b 683 -401 619 -416 555 -423 b 505 -428 444 -433 399 -406 b 306 -349 360 -194 389 -117 b 476 112 648 309 818 480 b 967 629 1133 762 1309 878 b 1445 837 1564 759 1606 617 z"},"}":{"x_min":0,"x_max":816,"ha":816,"o":"m 761 306 b 669 539 582 773 500 1009 b 460 1125 421 1241 384 1358 b 348 1469 320 1586 276 1694 b 241 1778 143 1859 54 1794 b 43 1786 58 1770 69 1776 b 117 1804 171 1770 198 1728 b 222 1690 232 1643 244 1600 b 274 1490 306 1382 339 1273 b 404 1061 473 850 547 641 b 582 541 618 442 655 343 b 647 340 638 336 630 331 b 591 305 569 258 555 215 b 520 110 516 -10 504 -119 b 480 -344 462 -584 366 -792 b 318 -894 230 -992 112 -1003 b 57 -1007 84 -1081 130 -1080 b 342 -1072 449 -871 501 -691 b 563 -478 578 -255 603 -35 b 610 23 615 82 628 140 b 634 165 641 190 653 214 b 659 225 666 239 676 248 b 679 251 684 253 687 256 b 697 266 702 253 686 270 b 720 236 783 251 761 306 z"},"Z":{"x_min":0,"x_max":2057,"ha":2057,"o":"m 79 1005 b 181 1009 275 1058 366 1102 b 456 1146 544 1194 632 1242 b 810 1338 992 1433 1189 1484 b 1362 1528 1589 1551 1735 1423 b 1885 1291 1844 1053 1787 886 b 1719 686 1604 505 1481 335 b 1360 169 1223 15 1071 -123 b 1063 -130 1056 -137 1049 -143 b 913 -163 779 -191 651 -234 b 553 -267 458 -310 373 -369 b 335 -394 288 -424 273 -469 b 261 -506 272 -544 305 -566 b 349 -596 412 -593 463 -586 b 519 -578 575 -563 628 -541 b 734 -498 832 -438 924 -369 b 1013 -303 1099 -230 1181 -152 b 1398 -123 1620 -104 1838 -140 b 1891 -149 1943 -162 1995 -178 b 2012 -183 2010 -158 1995 -154 b 1770 -84 1532 -88 1299 -112 b 1270 -116 1241 -119 1212 -122 b 1442 102 1636 368 1769 655 b 1854 838 1923 1065 1861 1265 b 1834 1352 1779 1429 1702 1476 b 1626 1523 1537 1541 1449 1543 b 1239 1550 1031 1472 844 1383 b 746 1336 651 1285 556 1235 b 453 1181 350 1123 240 1084 b 185 1064 127 1054 68 1051 b 36 1049 52 1004 79 1005 z m 564 -470 b 514 -490 463 -511 408 -517 b 386 -520 351 -527 330 -519 b 300 -508 317 -468 331 -450 b 361 -411 414 -381 455 -355 b 499 -329 544 -307 591 -287 b 725 -232 867 -201 1010 -177 b 876 -294 729 -403 564 -470 z"},"x":{"x_min":0,"x_max":357,"ha":357,"o":"m 371 280 b 325 238 229 111 159 161 b 132 181 118 215 111 251 b 148 290 186 326 227 361 b 240 372 220 392 209 383 b 173 352 138 320 105 286 b 101 314 100 341 97 362 b 93 400 19 414 21 368 b 22 326 28 270 46 223 b 19 192 -6 160 -30 127 b -37 117 -22 104 -12 111 b -9 113 -6 115 -3 117 b 0 119 1 122 0 125 b 19 149 38 172 58 194 b 77 159 104 131 145 121 b 244 97 328 203 386 266 b 393 273 378 287 371 280 z"},")":{"x_min":0,"x_max":823,"ha":823,"o":"m 563 1439 b 519 1549 467 1663 386 1751 b 351 1790 308 1826 255 1838 b 202 1850 169 1829 132 1795 b 122 1785 138 1767 148 1776 b 177 1800 232 1789 264 1772 b 307 1748 339 1706 366 1666 b 421 1588 458 1499 492 1410 b 565 1224 618 1030 650 833 b 681 637 690 437 673 239 b 657 51 623 -147 541 -318 b 459 -489 281 -650 78 -610 b 38 -603 44 -655 76 -664 b 267 -718 460 -613 568 -458 b 688 -286 732 -68 757 136 b 811 577 730 1030 563 1439 z"},"&":{"x_min":0,"x_max":1858,"ha":1858,"o":"m 1799 -356 b 1715 -322 1628 -323 1539 -332 b 1448 -340 1356 -356 1266 -376 b 1197 -391 1129 -408 1060 -425 b 1052 -334 1046 -243 1043 -152 b 1055 -148 1067 -145 1080 -142 b 1197 -139 1313 -122 1425 -90 b 1443 -85 1448 -65 1443 -49 b 1436 -30 1418 -21 1399 -20 b 1306 -14 1214 -36 1124 -59 b 1096 -61 1068 -61 1040 -61 b 1030 325 1053 714 1069 1099 b 1072 1183 1076 1268 1081 1353 b 1082 1377 1083 1401 1084 1425 b 1180 1428 1276 1402 1341 1325 b 1419 1233 1438 1104 1452 988 b 1454 974 1480 972 1478 990 b 1465 1098 1446 1213 1385 1306 b 1322 1401 1217 1449 1104 1453 b 1098 1453 1092 1453 1086 1453 b 1086 1462 1087 1471 1087 1480 b 1089 1522 1083 1575 1099 1615 b 1104 1626 1084 1636 1078 1624 b 1066 1595 1068 1562 1066 1532 b 1064 1505 1063 1478 1061 1452 b 950 1444 841 1399 742 1350 b 628 1294 521 1224 425 1141 b 242 984 47 761 50 506 b 53 240 282 53 510 -38 b 626 -85 749 -116 874 -131 b 851 -139 827 -147 803 -156 b 709 -189 617 -227 527 -270 b 443 -309 357 -350 284 -406 b 226 -451 119 -549 223 -608 b 257 -628 301 -631 340 -633 b 396 -637 452 -631 508 -623 b 676 -596 841 -551 1006 -507 b 1013 -576 1021 -646 1031 -715 b 1036 -752 1102 -755 1095 -712 b 1084 -638 1074 -565 1067 -491 b 1079 -488 1091 -484 1103 -481 b 1214 -452 1326 -425 1439 -403 b 1552 -380 1681 -350 1795 -379 b 1810 -382 1811 -361 1799 -356 z m 711 -512 b 617 -533 523 -555 427 -563 b 383 -567 338 -568 295 -562 b 286 -560 267 -560 260 -555 b 257 -554 254 -552 252 -551 b 253 -543 256 -535 262 -529 b 276 -510 296 -493 313 -478 b 380 -422 458 -381 537 -343 b 619 -303 703 -268 788 -235 b 854 -211 920 -188 986 -168 b 987 -181 987 -193 987 -206 b 990 -284 994 -362 1000 -440 b 904 -464 807 -489 711 -512 z m 1015 718 b 998 459 983 199 985 -60 b 871 -56 758 -38 647 -6 b 437 56 202 178 142 407 b 80 644 228 871 382 1037 b 536 1204 745 1343 964 1405 b 995 1414 1027 1420 1059 1423 b 1059 1419 1059 1415 1059 1411 b 1054 1333 1050 1256 1045 1178 b 1035 1024 1024 871 1015 718 z"},"_":{"x_min":0,"x_max":1571,"ha":1571,"o":"m 1489 -508 b 1246 -476 1000 -494 756 -503 b 637 -507 518 -509 400 -520 b 286 -531 162 -544 57 -591 b 43 -597 53 -615 65 -614 b 66 -614 66 -615 66 -615 b 183 -598 299 -576 418 -569 b 533 -562 648 -561 763 -559 b 1004 -556 1246 -544 1486 -574 b 1534 -580 1530 -514 1489 -508 z"},"v":{"x_min":0,"x_max":389,"ha":389,"o":"m 413 274 b 374 285 341 310 312 337 b 297 351 278 376 254 368 b 231 361 227 326 223 306 b 216 266 212 225 202 184 b 193 148 183 111 168 77 b 163 66 158 56 152 46 b 146 37 131 27 119 35 b 108 42 102 76 98 89 b 74 166 70 246 65 327 b 64 352 46 374 20 379 b -1 383 -28 370 -27 345 b -24 254 -10 159 34 77 b 60 27 123 -44 173 24 b 195 55 207 95 217 131 b 230 175 238 221 245 267 b 247 288 246 324 266 335 b 281 343 278 339 291 327 b 299 320 306 312 315 305 b 344 281 376 262 413 252 b 429 248 427 271 413 274 z"},"O":{"x_min":0,"x_max":1381,"ha":1381,"o":"m 87 1314 b 30 1152 24 934 177 823 b 271 755 390 739 507 744 b 493 573 498 400 518 229 b 530 124 545 17 586 -81 b 620 -162 682 -252 780 -251 b 874 -250 952 -171 1009 -105 b 1072 -32 1121 52 1160 140 b 1250 335 1302 548 1322 761 b 1355 1119 1315 1630 941 1806 b 586 1973 199 1636 87 1314 z m 365 1664 b 499 1778 679 1857 856 1812 b 1023 1770 1148 1629 1213 1475 b 1288 1297 1294 1091 1285 901 b 1275 703 1236 507 1169 320 b 1111 158 1032 -7 901 -123 b 865 -155 817 -192 765 -190 b 714 -188 682 -141 661 -99 b 613 -6 599 103 588 206 b 567 387 568 570 587 751 b 629 755 669 762 708 769 b 762 779 812 794 862 816 b 899 834 866 888 832 875 b 753 842 675 809 591 791 b 596 827 600 862 606 897 b 613 941 535 963 527 913 b 520 868 515 824 511 779 b 440 772 368 775 300 794 b 216 816 144 866 108 946 b 68 1033 71 1137 92 1229 b 130 1398 234 1553 365 1664 z"},"(":{"x_min":0,"x_max":826,"ha":826,"o":"m 733 -611 b 554 -645 390 -522 305 -374 b 214 -215 177 -21 156 159 b 110 552 172 954 304 1324 b 340 1426 379 1529 435 1622 b 463 1667 495 1716 536 1749 b 569 1776 639 1809 677 1777 b 689 1767 701 1783 689 1793 b 658 1823 625 1845 580 1842 b 533 1838 492 1814 458 1782 b 381 1710 330 1612 287 1517 b 197 1315 133 1101 93 884 b 53 665 39 443 59 221 b 78 14 116 -207 220 -390 b 327 -577 536 -728 759 -663 b 796 -653 763 -605 733 -611 z"},"C":{"x_min":0,"x_max":1580,"ha":1580,"o":"m 1200 1329 b 1131 1420 1010 1427 907 1400 b 691 1345 524 1155 402 979 b 266 783 163 564 103 334 b 46 109 17 -144 111 -363 b 151 -456 215 -538 305 -589 b 397 -641 503 -644 604 -613 b 711 -581 803 -511 883 -435 b 962 -358 1033 -273 1097 -183 b 1226 -2 1328 198 1441 390 b 1469 437 1498 483 1528 529 b 1535 540 1516 555 1509 544 b 1292 215 1139 -162 844 -433 b 768 -503 681 -565 580 -592 b 480 -620 372 -593 295 -524 b 140 -386 115 -154 136 40 b 157 246 219 449 308 635 b 395 818 511 997 654 1140 b 723 1208 803 1269 891 1309 b 980 1349 1101 1381 1174 1294 b 1247 1208 1207 1081 1165 991 b 1161 982 1157 973 1152 965 b 1009 916 873 843 755 749 b 715 717 678 682 643 646 b 618 620 573 581 581 540 b 599 445 767 532 809 557 b 960 645 1088 777 1173 931 b 1184 934 1195 938 1206 940 b 1256 954 1307 963 1359 970 b 1393 975 1372 1020 1342 1014 b 1293 1005 1245 993 1197 979 b 1206 998 1214 1016 1221 1035 b 1261 1136 1268 1240 1200 1329 z m 1005 755 b 936 681 854 613 765 565 b 737 550 609 489 607 551 b 607 571 635 597 647 611 b 665 630 683 649 702 667 b 823 782 969 865 1126 917 b 1092 859 1051 804 1005 755 z"},"W":{"x_min":0,"x_max":2318,"ha":2318,"o":"m 2019 99 b 1993 -29 1964 -208 1843 -284 b 1702 -372 1570 -238 1506 -120 b 1439 4 1399 145 1370 282 b 1300 604 1301 936 1301 1263 b 1301 1264 1302 1265 1302 1266 b 1317 1311 1236 1351 1221 1302 b 1150 1077 1082 851 1014 624 b 951 417 900 197 788 9 b 731 -88 617 -160 518 -71 b 438 2 396 114 364 214 b 298 422 275 639 252 854 b 239 973 224 1092 210 1211 b 199 1305 179 1413 87 1460 b 57 1475 35 1432 63 1415 b 105 1390 126 1350 139 1305 b 154 1256 166 1205 176 1154 b 197 1042 211 929 225 815 b 253 591 281 364 359 150 b 391 62 435 -30 508 -93 b 580 -155 674 -150 746 -88 b 821 -23 871 77 914 165 b 963 266 1001 372 1038 478 b 1121 714 1200 951 1277 1189 b 1275 930 1278 670 1318 414 b 1340 275 1373 138 1422 6 b 1465 -109 1523 -230 1629 -300 b 1729 -366 1841 -343 1922 -258 b 1965 -212 1993 -153 2015 -95 b 2040 -27 2060 43 2078 114 b 2148 398 2171 692 2239 977 b 2278 1139 2325 1299 2383 1455 b 2410 1528 2439 1600 2475 1669 b 2493 1703 2513 1736 2536 1768 b 2546 1783 2556 1797 2567 1810 b 2572 1817 2580 1823 2584 1830 b 2591 1812 2613 1797 2629 1811 b 2674 1851 2626 1914 2575 1914 b 2514 1914 2468 1843 2438 1798 b 2360 1680 2312 1544 2268 1410 b 2175 1129 2121 838 2085 545 b 2067 396 2049 246 2019 99 z"},"A":{"x_min":0,"x_max":2075,"ha":2075,"o":"m 53 -661 b 45 -669 56 -680 64 -682 b 144 -707 227 -670 304 -647 b 391 -621 478 -596 566 -573 b 722 -531 879 -493 1038 -459 b 1048 -479 1054 -504 1055 -532 b 1056 -540 1056 -548 1056 -557 b 1034 -675 1017 -795 1014 -916 b 1014 -928 1035 -938 1040 -924 b 1082 -797 1107 -666 1136 -536 b 1144 -501 1151 -467 1159 -433 b 1422 -380 1688 -338 1954 -308 b 1959 -370 1964 -432 1968 -495 b 1970 -515 2003 -520 1999 -497 b 1988 -434 1980 -370 1976 -306 b 2055 -297 2135 -289 2215 -282 b 2319 -274 2423 -266 2527 -263 b 2580 -262 2632 -262 2684 -265 b 2701 -265 2829 -263 2831 -293 b 2832 -318 2878 -330 2876 -302 b 2871 -228 2775 -230 2720 -226 b 2623 -220 2525 -223 2427 -230 b 2276 -240 2124 -255 1973 -274 b 1968 -195 1966 -116 1964 -37 b 1960 113 1960 264 1960 415 b 1959 565 1958 716 1950 867 b 1943 996 1943 1140 1884 1258 b 1862 1301 1830 1336 1777 1325 b 1718 1313 1675 1261 1641 1215 b 1560 1108 1506 981 1454 858 b 1343 594 1256 319 1185 42 b 1145 -112 1110 -267 1080 -423 b 1070 -425 1061 -427 1051 -429 b 1034 -401 1010 -376 976 -357 b 887 -305 782 -319 687 -342 b 574 -371 463 -410 357 -460 b 249 -510 132 -568 53 -661 z m 1228 -142 b 1293 118 1369 375 1463 626 b 1510 750 1559 874 1613 996 b 1634 1043 1764 1336 1836 1275 b 1858 1256 1871 1213 1880 1187 b 1890 1157 1896 1126 1902 1095 b 1913 1026 1917 955 1921 886 b 1929 744 1931 602 1932 460 b 1934 300 1933 141 1938 -19 b 1940 -105 1946 -191 1952 -277 b 1915 -282 1877 -287 1840 -292 b 1614 -323 1389 -360 1165 -405 b 1186 -317 1206 -229 1228 -142 z m 1075 -451 b 1074 -459 1072 -467 1071 -474 b 1068 -467 1066 -460 1063 -453 b 1067 -452 1071 -451 1075 -451 z m 399 -474 b 517 -422 645 -377 773 -360 b 865 -348 971 -365 1023 -435 b 916 -458 810 -483 704 -509 b 599 -536 495 -564 391 -594 b 337 -610 283 -626 230 -642 b 184 -656 138 -669 91 -662 b 174 -576 292 -521 399 -474 z"},"f":{"x_min":0,"x_max":254,"ha":254,"o":"m 271 280 b 226 245 183 208 142 169 b 123 151 105 133 88 115 b 88 115 87 115 87 115 b 87 121 87 127 86 133 b 83 254 91 376 95 497 b 96 538 17 575 7 525 b -14 414 -21 303 -17 190 b -14 87 -3 -17 40 -112 b 56 -148 83 -189 123 -200 b 156 -208 184 -184 195 -155 b 224 -86 187 -1 128 40 b 117 47 100 51 91 59 b 90 67 90 74 89 82 b 101 102 130 123 146 139 b 191 182 237 223 286 262 b 297 270 281 288 271 280 z m 123 17 b 163 -14 201 -90 173 -140 b 147 -188 129 -136 122 -113 b 113 -87 108 -60 103 -33 b 99 -12 96 10 94 31 b 104 27 114 23 123 17 z"},"Q":{"x_min":0,"x_max":1425,"ha":1425,"o":"m 183 810 b 280 740 403 723 525 729 b 510 550 514 370 536 191 b 549 83 563 -28 606 -129 b 637 -202 691 -282 773 -298 b 725 -316 678 -335 632 -356 b 535 -398 441 -445 350 -497 b 304 -524 259 -551 214 -580 b 179 -603 126 -627 112 -670 b 109 -678 117 -687 125 -686 b 143 -684 160 -682 177 -679 b 191 -678 184 -658 172 -659 b 163 -660 154 -661 144 -662 b 168 -633 215 -613 243 -596 b 280 -574 317 -552 355 -532 b 435 -489 516 -449 599 -413 b 678 -378 758 -348 839 -320 b 883 -306 927 -292 972 -281 b 995 -276 1018 -271 1041 -268 b 1054 -267 1066 -265 1079 -264 b 1093 -263 1103 -269 1107 -252 b 1100 -284 1151 -304 1157 -268 b 1170 -184 1007 -225 952 -240 b 985 -214 1015 -182 1040 -152 b 1107 -76 1158 13 1199 105 b 1291 307 1345 527 1366 748 b 1400 1118 1359 1645 973 1827 b 604 2001 203 1650 87 1316 b 30 1149 23 924 183 810 z m 373 1679 b 511 1798 699 1881 883 1835 b 1056 1791 1185 1646 1253 1487 b 1332 1301 1338 1086 1328 887 b 1319 686 1279 487 1212 297 b 1151 123 1066 -56 923 -178 b 887 -209 839 -244 788 -241 b 736 -237 704 -189 682 -147 b 632 -50 618 62 605 169 b 583 357 585 547 604 736 b 647 741 689 747 729 755 b 786 765 838 780 890 804 b 927 821 894 876 860 862 b 778 829 696 794 609 776 b 613 813 618 850 624 887 b 630 931 553 953 545 903 b 538 857 532 810 528 764 b 454 757 379 760 308 779 b 222 802 148 853 110 935 b 68 1025 71 1131 91 1226 b 130 1402 237 1563 373 1679 z"},"w":{"x_min":0,"x_max":626,"ha":626,"o":"m 647 278 b 599 278 569 312 539 344 b 528 356 513 373 494 369 b 472 365 466 335 460 317 b 450 281 440 246 429 210 b 419 177 409 143 394 112 b 388 99 378 75 364 66 b 346 54 337 71 329 87 b 294 150 286 228 281 298 b 279 321 264 340 241 345 b 227 347 209 342 202 330 b 201 329 200 328 199 326 b 189 286 181 246 168 207 b 158 176 141 118 108 105 b 34 78 56 274 58 310 b 61 355 -16 377 -21 326 b -28 264 -28 199 -6 140 b 9 100 41 54 89 58 b 130 62 156 110 171 142 b 186 173 197 206 206 240 b 213 181 225 122 255 69 b 274 34 301 0 342 -9 b 380 -17 412 3 431 35 b 480 116 461 213 484 300 b 490 322 495 358 521 331 b 533 319 545 305 558 294 b 585 270 616 255 652 255 b 668 256 660 278 647 278 z"},"-":{"x_min":0,"x_max":1114,"ha":1114,"o":"m 1031 461 b 950 479 866 468 784 458 b 701 447 618 433 536 415 b 370 378 212 325 56 258 b 42 252 55 232 67 236 b 220 288 380 329 538 358 b 618 373 699 385 781 393 b 862 402 948 413 1029 393 b 1078 381 1074 452 1031 461 z"},"E":{"x_min":0,"x_max":2016,"ha":2016,"o":"m 583 1000 b 654 1085 734 1161 823 1227 b 993 1351 1260 1491 1458 1348 b 1684 1184 1653 868 1694 625 b 1699 598 1746 596 1740 627 b 1693 867 1702 1150 1514 1334 b 1328 1515 1066 1426 866 1319 b 655 1205 457 1030 352 811 b 298 699 275 569 320 450 b 362 340 457 257 562 209 b 664 162 778 146 891 142 b 818 115 746 86 675 55 b 552 2 431 -57 313 -121 b 254 -153 194 -185 139 -224 b 101 -250 33 -292 54 -347 b 74 -401 142 -397 189 -396 b 260 -394 332 -385 403 -374 b 541 -351 678 -323 815 -295 b 1094 -238 1372 -171 1642 -80 b 1712 -56 1785 -33 1852 -1 b 1883 14 1981 54 1964 101 b 1957 119 1938 129 1921 134 b 1887 145 1849 149 1813 153 b 1736 162 1659 162 1582 154 b 1568 153 1575 133 1587 134 b 1652 140 1716 140 1781 134 b 1808 131 1835 128 1863 123 b 1877 120 1892 117 1906 114 b 1911 112 1921 111 1925 108 b 1949 88 1922 73 1911 66 b 1861 33 1802 15 1745 -2 b 1687 -20 1629 -37 1570 -53 b 1330 -119 1088 -177 843 -226 b 720 -251 596 -274 471 -296 b 411 -306 351 -316 290 -322 b 260 -325 230 -328 199 -329 b 184 -329 169 -330 153 -330 b 148 -330 139 -328 130 -327 b 133 -324 137 -320 139 -318 b 149 -309 161 -300 172 -292 b 197 -274 223 -258 249 -242 b 300 -212 353 -184 406 -157 b 511 -102 618 -53 728 -7 b 890 60 1057 118 1227 165 b 1313 180 1398 201 1481 228 b 1536 247 1486 320 1439 309 b 1380 295 1321 280 1263 263 b 1197 250 1131 240 1064 235 b 943 225 817 224 697 251 b 596 274 496 323 436 410 b 373 502 376 614 411 716 b 447 821 513 914 583 1000 z"},"s":{"x_min":0,"x_max":334,"ha":334,"o":"m 350 288 b 272 240 208 171 166 89 b 163 83 159 76 156 69 b 141 89 125 108 112 127 b 78 173 52 223 59 281 b 64 326 103 425 161 408 b 180 402 180 429 166 436 b 121 457 69 435 34 403 b -3 370 -23 318 -27 269 b -37 156 59 68 124 -16 b 108 -74 105 -135 130 -184 b 167 -256 267 -235 262 -151 b 257 -81 218 -16 175 43 b 213 136 280 215 365 270 b 377 277 361 295 350 288 z m 189 -113 b 200 -132 245 -216 185 -202 b 143 -192 140 -127 142 -94 b 143 -79 145 -63 148 -48 b 162 -69 176 -91 189 -113 z"},">":{"x_min":0,"x_max":903,"ha":903,"o":"m 801 401 b 747 424 686 437 629 451 b 566 467 503 481 440 496 b 339 519 241 544 143 575 b 142 575 141 576 140 577 b 116 592 92 599 63 599 b 42 599 50 574 62 567 b 255 465 479 436 686 374 b 699 370 711 367 724 362 b 732 360 744 354 755 350 b 746 347 738 345 729 342 b 669 323 609 303 549 284 b 433 247 318 209 202 172 b 156 157 197 91 237 104 b 369 148 502 191 634 235 b 669 246 703 257 737 268 b 767 278 803 285 829 301 b 880 331 841 384 801 401 z"},"l":{"x_min":0,"x_max":183,"ha":183,"o":"m 160 -182 b 113 -177 105 -106 98 -69 b 90 -23 82 24 77 71 b 67 170 66 270 67 369 b 69 574 83 778 90 983 b 91 1028 15 1051 8 999 b -21 771 -24 539 -19 310 b -16 200 -8 91 14 -17 b 24 -65 36 -117 65 -158 b 88 -191 123 -203 163 -204 b 177 -204 172 -183 160 -182 z"},"8":{"x_min":0,"x_max":1188,"ha":1188,"o":"m 134 538 b 236 449 367 400 488 339 b 420 215 365 81 344 -57 b 332 -137 328 -228 371 -301 b 409 -364 474 -397 547 -391 b 688 -378 834 -277 873 -138 b 920 26 828 190 706 295 b 659 336 608 370 554 401 b 573 431 592 461 613 490 b 628 511 798 719 812 699 b 818 691 834 696 828 706 b 797 758 721 659 700 637 b 640 574 588 504 541 429 b 538 424 535 419 532 414 b 434 467 332 513 238 574 b 210 593 180 613 162 642 b 137 681 147 728 162 769 b 192 848 249 917 309 976 b 434 1098 587 1202 756 1252 b 838 1276 955 1305 1036 1265 b 1147 1210 1104 1046 1074 956 b 1002 737 918 521 843 302 b 837 284 869 268 876 287 b 943 477 1006 668 1072 858 b 1114 981 1204 1200 1054 1287 b 989 1325 908 1320 836 1310 b 753 1299 672 1275 595 1243 b 445 1181 300 1089 187 971 b 132 914 78 843 58 765 b 34 675 66 597 134 538 z m 586 284 b 720 198 851 55 818 -117 b 804 -193 756 -257 695 -302 b 629 -350 520 -393 444 -343 b 353 -284 357 -157 371 -62 b 386 41 423 140 466 234 b 481 265 496 296 512 326 b 538 313 562 299 586 284 z"},"\\":{"x_min":0,"x_max":1031,"ha":1031,"o":"m 977 -736 b 863 -430 741 -127 626 179 b 511 485 399 794 290 1102 b 259 1190 228 1278 197 1365 b 166 1451 139 1540 103 1623 b 92 1649 43 1647 51 1614 b 69 1533 98 1454 123 1375 b 147 1297 172 1220 198 1143 b 249 988 302 834 355 680 b 464 371 576 62 692 -244 b 758 -418 824 -591 896 -762 b 918 -812 999 -794 977 -736 z"},"e":{"x_min":0,"x_max":251,"ha":251,"o":"m 265 267 b 235 218 206 167 170 122 b 160 109 148 96 136 84 b 124 74 102 59 86 62 b 62 66 59 114 57 132 b 54 178 62 224 77 268 b 106 269 133 279 150 307 b 165 333 165 369 141 391 b 108 421 61 407 33 377 b 0 341 -13 287 -20 240 b -27 191 -26 136 -6 90 b 11 54 46 15 90 24 b 130 33 167 75 191 106 b 227 152 254 204 283 254 b 289 264 272 278 265 267 z m 120 356 b 140 367 125 323 120 316 b 112 305 100 297 86 294 b 93 311 105 347 120 356 z"},"b":{"x_min":0,"x_max":559,"ha":559,"o":"m 451 360 b 437 412 406 489 349 506 b 287 525 234 465 206 418 b 161 345 135 259 115 177 b 102 127 88 73 78 19 b 75 51 72 84 70 116 b 63 199 59 281 58 364 b 56 530 70 695 92 860 b 98 907 16 930 7 877 b -23 705 -30 528 -22 354 b -18 269 -10 186 2 102 b 9 59 17 16 27 -27 b 35 -60 41 -102 70 -122 b 78 -127 92 -127 92 -115 b 93 -106 93 -97 92 -87 b 94 -29 108 30 120 87 b 132 146 147 205 166 263 b 186 321 208 381 246 430 b 265 454 294 484 328 485 b 368 487 388 447 394 413 b 406 347 406 278 398 209 b 338 182 287 140 243 91 b 198 41 153 -21 147 -90 b 142 -146 171 -206 230 -220 b 298 -235 364 -176 395 -123 b 437 -53 452 32 462 111 b 473 192 472 281 451 360 z m 365 43 b 350 -11 332 -67 293 -108 b 276 -126 257 -142 234 -150 b 223 -153 209 -158 199 -153 b 185 -145 179 -119 178 -106 b 174 -40 216 20 256 67 b 295 114 341 155 395 183 b 388 135 378 88 365 43 z"},"%":{"x_min":0,"x_max":1548,"ha":1548,"o":"m 1430 1155 b 1006 784 632 352 314 -112 b 223 -244 136 -380 54 -518 b 35 -549 89 -590 108 -558 b 401 -83 749 360 1141 758 b 1253 871 1369 981 1486 1088 b 1523 1122 1465 1185 1430 1155 z m 352 571 b 353 553 356 536 360 518 b 376 455 430 396 498 438 b 558 475 590 559 610 623 b 632 697 645 775 649 852 b 653 930 647 1010 623 1084 b 604 1142 573 1206 511 1227 b 370 1274 289 1050 266 950 b 246 866 239 773 257 688 b 267 637 301 583 352 571 z m 315 902 b 326 956 343 1009 367 1057 b 388 1099 419 1152 464 1170 b 569 1214 592 976 593 918 b 594 809 573 692 529 592 b 517 566 503 541 485 518 b 477 510 460 487 446 487 b 430 488 427 516 425 527 b 411 594 430 663 444 728 b 452 764 391 797 380 757 b 365 705 352 650 351 596 b 270 627 303 844 315 902 z m 1210 528 b 1068 575 988 351 965 252 b 945 168 938 75 956 -10 b 966 -62 1000 -116 1051 -127 b 1052 -145 1054 -163 1059 -180 b 1075 -243 1129 -302 1197 -260 b 1257 -223 1289 -140 1308 -75 b 1331 -1 1344 77 1348 154 b 1352 232 1346 311 1322 386 b 1303 444 1272 508 1210 528 z m 1228 -106 b 1216 -133 1202 -158 1183 -180 b 1176 -189 1159 -212 1145 -211 b 1129 -210 1126 -182 1124 -171 b 1110 -104 1129 -35 1143 30 b 1151 66 1090 99 1079 59 b 1064 7 1051 -48 1050 -102 b 969 -71 1001 146 1013 204 b 1024 257 1041 310 1066 359 b 1087 401 1118 453 1163 472 b 1268 516 1291 278 1292 219 b 1293 111 1272 -7 1228 -106 z"},"m":{"x_min":0,"x_max":585,"ha":585,"o":"m 599 242 b 574 219 546 195 511 189 b 494 186 474 187 461 200 b 452 210 448 228 442 240 b 429 271 422 304 405 334 b 396 349 385 371 366 374 b 324 382 297 314 285 285 b 272 256 262 225 254 193 b 253 206 252 218 251 231 b 248 271 245 314 228 351 b 211 387 176 414 144 379 b 112 345 99 290 87 246 b 79 215 70 184 63 153 b 63 160 62 167 62 174 b 61 232 63 290 67 348 b 71 395 -12 419 -17 365 b -23 303 -22 241 -15 180 b -9 126 -3 60 29 15 b 36 4 62 0 65 16 b 66 19 66 21 66 24 b 67 25 68 27 68 29 b 73 92 89 153 105 214 b 115 252 126 290 142 326 b 148 338 158 363 172 369 b 187 376 184 362 184 349 b 185 335 183 321 182 308 b 178 237 169 167 179 97 b 184 57 263 42 262 88 b 262 89 263 91 263 92 b 267 158 285 225 313 285 b 320 300 327 315 337 328 b 341 333 350 346 355 347 b 367 348 369 328 370 321 b 375 290 371 260 381 229 b 396 180 439 158 488 157 b 541 157 582 188 618 224 b 628 233 608 251 599 242 z"},"#":{"x_min":0,"x_max":1356,"ha":1356,"o":"m 1304 245 b 1291 276 1258 277 1230 274 b 1183 267 1136 259 1089 251 b 1054 245 1019 238 985 231 b 990 310 997 388 1005 466 b 1065 473 1125 477 1184 471 b 1186 453 1219 438 1224 460 b 1226 468 1227 476 1228 484 b 1230 495 1217 508 1207 509 b 1141 515 1074 510 1009 501 b 1020 608 1033 715 1046 822 b 1062 947 1079 1072 1096 1196 b 1103 1245 1018 1268 1010 1213 b 974 987 948 758 926 530 b 925 515 924 501 922 487 b 920 486 917 486 915 486 b 845 473 775 460 705 444 b 722 644 745 843 767 1042 b 773 1091 687 1115 680 1060 b 651 848 627 635 613 422 b 422 373 235 307 56 224 b 43 218 54 201 66 204 b 98 213 131 221 164 227 b 174 229 170 241 162 245 b 308 306 458 356 612 395 b 606 310 603 225 601 139 b 490 108 380 73 272 36 b 259 31 270 14 281 17 b 387 51 493 82 601 109 b 599 -23 602 -154 611 -285 b 615 -347 620 -410 629 -472 b 634 -506 637 -566 681 -571 b 694 -572 699 -561 692 -551 b 678 -533 686 -492 686 -470 b 685 -435 683 -400 682 -365 b 680 -298 679 -232 679 -166 b 679 -68 681 30 685 129 b 711 135 738 141 765 146 b 811 156 856 165 902 174 b 898 62 899 -50 908 -162 b 912 -224 919 -285 931 -346 b 941 -401 951 -449 982 -495 b 989 -506 1010 -499 1002 -486 b 989 -465 992 -438 990 -415 b 988 -387 985 -359 983 -331 b 980 -277 977 -223 975 -169 b 972 -60 974 50 980 159 b 981 169 981 178 982 188 b 993 190 1005 192 1016 194 b 1057 200 1097 206 1138 212 b 1160 215 1181 218 1202 221 b 1213 222 1243 231 1258 228 b 1273 204 1317 210 1304 245 z m 904 215 b 875 209 846 202 818 195 b 774 185 730 174 686 163 b 687 186 688 209 690 232 b 694 294 698 355 703 417 b 769 432 836 444 903 453 b 909 454 914 455 920 456 b 913 375 907 295 904 215 z"},",":{"x_min":0,"x_max":296,"ha":296,"o":"m 181 143 b 154 86 129 28 105 -30 b 93 -58 83 -86 72 -115 b 62 -142 49 -171 50 -201 b 50 -210 65 -223 74 -215 b 95 -195 105 -168 117 -142 b 130 -115 144 -87 157 -60 b 184 -1 213 57 243 115 b 259 147 198 179 181 143 z"},"n":{"x_min":0,"x_max":437,"ha":437,"o":"m 447 251 b 429 209 411 166 384 129 b 368 107 343 77 314 99 b 299 110 292 137 286 154 b 259 229 264 316 212 381 b 160 446 116 345 101 303 b 85 257 72 210 63 161 b 63 165 62 170 62 174 b 61 232 63 290 67 348 b 71 395 -12 419 -17 365 b -23 303 -22 241 -15 180 b -9 126 -3 60 29 15 b 36 4 62 0 65 16 b 66 21 67 25 67 30 b 68 31 69 33 69 35 b 77 128 98 229 134 315 b 142 333 171 403 190 357 b 196 344 191 316 192 301 b 194 259 195 215 208 175 b 226 123 282 47 348 63 b 414 80 447 186 470 241 b 475 253 452 265 447 251 z"},"h":{"x_min":0,"x_max":422,"ha":422,"o":"m 393 -120 b 341 -101 346 -17 343 28 b 338 84 339 141 336 197 b 334 250 328 307 309 357 b 298 385 276 438 242 445 b 209 453 186 417 173 393 b 146 344 130 289 117 235 b 100 168 86 99 77 30 b 75 59 72 88 70 116 b 63 199 59 281 58 364 b 56 530 70 695 92 860 b 98 907 16 930 7 877 b -23 705 -30 528 -22 354 b -18 269 -10 186 2 102 b 9 59 17 16 27 -27 b 35 -60 41 -102 70 -122 b 78 -127 92 -127 92 -115 b 93 -102 92 -88 91 -75 b 100 22 113 118 137 212 b 149 260 162 308 182 353 b 191 371 204 408 224 417 b 267 437 265 358 265 337 b 268 235 252 134 259 32 b 265 -47 297 -140 388 -147 b 406 -149 410 -126 393 -120 z"},"z":{"x_min":0,"x_max":294,"ha":294,"o":"m 309 263 b 268 240 229 215 191 188 b 181 209 169 227 152 243 b 135 260 115 273 93 281 b 119 308 139 339 133 369 b 130 385 113 391 99 394 b 60 401 18 400 -22 399 b -38 399 -30 377 -16 377 b 11 376 38 375 66 373 b 84 371 112 374 87 357 b 53 335 18 316 -16 295 b -47 274 -17 231 10 225 b 50 217 90 214 113 176 b 120 165 125 153 128 140 b 106 121 84 101 63 81 b 8 28 -94 -69 -60 -155 b -29 -235 87 -206 136 -162 b 212 -94 230 13 215 110 b 212 128 208 147 202 164 b 241 193 282 219 325 243 b 338 250 320 269 309 263 z m 137 53 b 135 -25 96 -129 17 -161 b -25 -179 -45 -137 -37 -100 b -31 -76 -16 -53 -2 -32 b 27 9 62 45 98 79 b 110 90 122 101 135 111 b 137 92 138 72 137 53 z"},"B":{"x_min":0,"x_max":2296,"ha":2296,"o":"m 162 272 b 329 231 523 255 657 126 b 742 44 790 -66 823 -180 b 830 -226 837 -272 846 -318 b 789 -342 733 -367 678 -395 b 591 -438 503 -483 433 -551 b 403 -580 365 -619 375 -664 b 385 -711 431 -730 472 -740 b 570 -764 674 -736 769 -714 b 866 -691 962 -663 1056 -629 b 1243 -562 1424 -474 1593 -369 b 1709 -296 1828 -216 1928 -119 b 1978 -121 2026 -126 2074 -138 b 2101 -144 2127 -151 2152 -161 b 2164 -166 2222 -197 2185 -210 b 2153 -222 2182 -270 2211 -259 b 2242 -248 2253 -214 2243 -184 b 2232 -149 2197 -131 2164 -122 b 2098 -102 2028 -93 1958 -90 b 1986 -62 2012 -32 2036 0 b 2145 143 2210 345 2079 497 b 1960 635 1756 679 1582 693 b 1399 709 1216 689 1035 657 b 1123 705 1212 752 1303 797 b 1452 871 1607 936 1750 1022 b 1784 1042 1818 1065 1850 1089 b 1879 1111 1915 1135 1931 1169 b 1961 1230 1910 1278 1855 1295 b 1693 1344 1514 1307 1353 1270 b 1186 1230 1024 1173 868 1100 b 870 1137 871 1173 873 1209 b 874 1252 799 1274 796 1224 b 792 1170 789 1115 786 1060 b 688 1010 594 954 504 892 b 375 804 241 704 144 582 b 103 530 58 464 51 397 b 43 324 98 287 162 272 z m 794 -625 b 710 -646 622 -672 535 -671 b 515 -671 495 -669 475 -664 b 471 -663 455 -660 454 -656 b 453 -649 468 -633 472 -628 b 498 -595 530 -568 564 -543 b 654 -477 754 -421 857 -373 b 860 -388 863 -404 867 -419 b 873 -447 920 -450 915 -417 b 911 -395 908 -373 905 -351 b 947 -332 990 -314 1033 -297 b 1219 -223 1414 -172 1613 -143 b 1673 -134 1733 -127 1794 -123 b 1771 -142 1747 -160 1723 -177 b 1446 -384 1129 -537 794 -625 z m 1893 546 b 1953 519 2013 478 2046 420 b 2087 347 2077 263 2048 188 b 2004 78 1923 -12 1833 -90 b 1639 -96 1443 -129 1255 -179 b 1133 -211 1014 -250 897 -297 b 860 -17 850 263 852 544 b 1026 578 1200 612 1377 621 b 1548 630 1735 619 1893 546 z m 1176 1161 b 1321 1208 1473 1248 1626 1260 b 1665 1263 1706 1264 1745 1260 b 1783 1257 1828 1253 1862 1236 b 1905 1215 1859 1178 1836 1161 b 1804 1137 1770 1115 1736 1094 b 1585 1001 1419 936 1261 860 b 1123 793 987 722 854 648 b 856 777 860 906 865 1035 b 966 1084 1070 1126 1176 1161 z m 114 419 b 164 554 293 657 403 744 b 521 838 649 921 782 992 b 776 862 772 732 771 601 b 759 591 761 569 770 557 b 770 556 771 556 771 555 b 772 368 780 181 800 -4 b 791 15 781 33 770 50 b 696 167 585 232 450 259 b 381 273 309 280 240 294 b 206 301 170 308 139 322 b 96 340 99 380 114 419 z"},"K":{"x_min":0,"x_max":1814,"ha":1814,"o":"m 2462 -430 b 2253 -457 2050 -380 1862 -296 b 1690 -219 1526 -126 1364 -32 b 1255 31 1147 94 1036 153 b 1033 182 1031 212 1029 242 b 1024 306 1020 370 1018 434 b 1256 557 1477 714 1670 900 b 1805 1030 1935 1171 2019 1340 b 2056 1414 2099 1511 2084 1595 b 2072 1668 2006 1706 1935 1697 b 1893 1691 1855 1672 1817 1653 b 1806 1647 1820 1629 1830 1634 b 1869 1653 1911 1674 1956 1675 b 2012 1676 2060 1643 2055 1582 b 2051 1540 2032 1497 2016 1459 b 1999 1419 1978 1381 1956 1344 b 1865 1197 1743 1068 1616 952 b 1434 785 1232 641 1015 525 b 1010 723 1015 922 1027 1120 b 1038 1288 1053 1456 1071 1623 b 1077 1674 987 1699 980 1641 b 931 1258 908 867 926 479 b 871 452 816 427 759 404 b 708 383 656 363 604 345 b 517 375 428 398 338 411 b 259 422 147 430 81 375 b 21 325 56 260 119 236 b 212 202 323 209 420 223 b 511 236 600 260 687 291 b 776 256 864 216 950 173 b 962 57 979 -59 1000 -174 b 1016 -258 1034 -343 1055 -427 b 1072 -497 1093 -567 1140 -623 b 1157 -644 1200 -630 1182 -603 b 1147 -548 1136 -485 1123 -423 b 1108 -350 1094 -276 1082 -202 b 1064 -93 1049 17 1039 127 b 1156 64 1271 -4 1386 -71 b 1548 -166 1711 -263 1881 -345 b 2065 -433 2268 -515 2476 -488 b 2516 -482 2497 -425 2462 -430 z m 217 278 b 184 279 130 274 101 292 b 42 329 141 375 170 382 b 268 407 372 385 468 361 b 501 352 533 343 566 333 b 452 297 336 273 217 278 z m 869 237 b 820 259 770 282 719 302 b 720 303 721 303 722 303 b 793 330 862 359 931 392 b 935 327 941 263 947 199 b 921 211 895 224 869 237 z"},"R":{"x_min":0,"x_max":1365,"ha":1365,"o":"m 2439 -73 b 2197 -214 1910 -247 1638 -190 b 1505 -162 1377 -112 1258 -48 b 1140 15 1036 97 934 183 b 849 255 760 331 660 383 b 791 455 906 556 1013 660 b 1141 784 1267 915 1371 1062 b 1466 1197 1560 1357 1582 1523 b 1593 1600 1583 1679 1538 1744 b 1496 1804 1431 1841 1361 1861 b 1198 1906 1020 1857 873 1785 b 731 1715 599 1620 482 1514 b 484 1533 485 1552 487 1572 b 492 1620 408 1644 400 1589 b 392 1531 386 1473 380 1415 b 295 1324 220 1224 161 1114 b 87 976 14 796 69 639 b 98 557 164 502 231 451 b 298 399 363 346 413 277 b 424 195 438 113 454 32 b 468 -40 483 -114 504 -185 b 518 -234 536 -276 584 -299 b 604 -309 616 -282 599 -270 b 598 -269 597 -268 596 -267 b 579 -130 560 9 511 139 b 497 232 486 326 477 420 b 455 664 448 910 458 1155 b 461 1247 467 1338 475 1429 b 551 1504 634 1571 722 1631 b 861 1726 1018 1809 1189 1824 b 1336 1836 1518 1790 1527 1614 b 1531 1535 1505 1459 1474 1388 b 1440 1311 1398 1239 1351 1171 b 1245 1018 1116 883 982 754 b 844 623 699 507 529 419 b 489 398 532 349 558 342 b 687 305 791 221 892 137 b 998 49 1106 -34 1228 -100 b 1474 -232 1755 -289 2032 -249 b 2183 -227 2329 -176 2459 -97 b 2475 -88 2453 -64 2439 -73 z m 388 346 b 341 398 282 437 230 483 b 169 536 118 598 104 679 b 90 764 112 852 141 930 b 193 1074 274 1205 373 1321 b 349 990 361 654 406 325 b 400 332 394 339 388 346 z m 539 -45 b 550 -99 558 -155 566 -210 b 559 -182 557 -153 554 -131 b 548 -102 544 -73 539 -45 z"},"T":{"x_min":0,"x_max":1601,"ha":1601,"o":"m 134 1589 b 101 1571 59 1538 51 1499 b 45 1466 67 1438 95 1424 b 135 1404 184 1403 228 1404 b 285 1405 342 1413 399 1423 b 514 1442 630 1464 745 1488 b 887 1517 1029 1548 1170 1579 b 1159 1309 1161 1040 1175 771 b 1190 493 1212 213 1259 -62 b 1272 -139 1288 -215 1309 -291 b 1327 -356 1347 -420 1389 -475 b 1408 -501 1459 -483 1439 -451 b 1407 -399 1394 -339 1382 -281 b 1367 -215 1355 -150 1345 -84 b 1325 48 1312 182 1300 315 b 1275 586 1263 858 1260 1131 b 1259 1286 1260 1441 1265 1596 b 1265 1597 1265 1598 1265 1599 b 1556 1661 1849 1719 2145 1753 b 2250 1765 2900 1833 2826 1610 b 2817 1582 2862 1560 2876 1588 b 2916 1668 2846 1751 2774 1781 b 2682 1819 2571 1823 2472 1826 b 2246 1832 2019 1796 1796 1758 b 1605 1725 1415 1686 1225 1646 b 1207 1652 1188 1650 1178 1635 b 947 1585 716 1533 484 1488 b 420 1476 357 1463 293 1455 b 239 1448 170 1439 117 1456 b 37 1483 134 1562 174 1577 b 224 1595 281 1591 327 1564 b 341 1555 354 1572 340 1580 b 278 1619 199 1622 134 1589 z"},"P":{"x_min":0,"x_max":1033,"ha":1033,"o":"m 170 1593 b 175 1645 84 1671 77 1611 b 22 1134 53 642 159 174 b 186 51 217 -88 292 -192 b 305 -211 342 -204 336 -177 b 335 -175 335 -172 334 -170 b 334 -169 335 -167 335 -166 b 312 157 296 482 332 805 b 350 967 381 1127 430 1283 b 477 1431 536 1595 645 1709 b 701 1768 787 1813 861 1758 b 924 1711 957 1625 975 1551 b 1003 1437 1004 1314 992 1195 b 940 1172 893 1136 849 1102 b 785 1052 725 998 670 939 b 612 876 559 809 514 736 b 473 670 436 593 438 513 b 440 448 467 384 532 360 b 610 331 685 357 747 409 b 809 461 853 530 891 601 b 933 678 967 758 994 840 b 1031 954 1052 1072 1057 1191 b 1062 1192 1067 1193 1071 1194 b 1087 1195 1080 1218 1066 1216 b 1063 1216 1061 1215 1058 1215 b 1059 1266 1057 1317 1053 1368 b 1045 1449 1029 1530 997 1605 b 968 1673 923 1751 858 1789 b 708 1879 575 1683 515 1573 b 433 1418 382 1245 346 1075 b 267 700 272 312 304 -68 b 299 -51 294 -35 289 -18 b 274 36 261 92 250 147 b 226 261 207 377 191 492 b 160 724 147 959 150 1193 b 152 1326 160 1460 170 1593 z m 978 1095 b 953 941 901 788 824 652 b 789 589 749 527 696 478 b 654 439 564 374 509 422 b 440 481 476 598 508 665 b 546 743 600 814 655 880 b 710 945 772 1007 839 1061 b 883 1097 934 1140 988 1167 b 986 1143 982 1119 978 1095 z"},"|":{"x_min":0,"x_max":286,"ha":286,"o":"m 236 -560 b 175 23 149 608 127 1195 b 123 1275 121 1356 117 1437 b 115 1479 114 1522 111 1565 b 109 1605 109 1648 95 1686 b 91 1699 67 1712 61 1693 b 50 1662 51 1629 50 1597 b 50 1559 50 1521 50 1483 b 51 1410 51 1336 52 1263 b 54 1115 57 968 61 821 b 70 526 83 232 103 -62 b 115 -226 129 -390 147 -554 b 152 -597 241 -611 236 -560 z"},"t":{"x_min":0,"x_max":162,"ha":162,"o":"m 1524 889 b 1476 927 1418 937 1359 945 b 1286 955 1212 960 1138 961 b 983 965 828 954 674 939 b 477 920 280 895 85 866 b 86 905 88 944 89 983 b 91 1028 14 1051 8 999 b 2 950 -3 901 -7 851 b -84 839 -160 826 -236 813 b -326 797 -416 781 -507 771 b -548 767 -590 764 -631 764 b -668 763 -722 761 -739 801 b -744 813 -762 809 -757 795 b -741 753 -695 743 -654 742 b -578 739 -499 748 -423 759 b -285 778 -147 805 -9 828 b -22 655 -23 481 -19 310 b -17 200 -8 91 14 -17 b 24 -65 36 -117 64 -158 b 87 -191 123 -203 162 -204 b 176 -204 172 -183 160 -182 b 113 -177 104 -106 98 -69 b 89 -23 82 24 77 71 b 67 170 66 270 67 369 b 68 527 77 685 84 842 b 384 888 688 927 991 936 b 1083 939 1175 938 1266 931 b 1346 924 1444 922 1510 870 b 1524 860 1538 878 1524 889 z"},"M":{"x_min":0,"x_max":2582,"ha":2582,"o":"m 455 951 b 299 903 196 755 134 612 b 66 457 42 285 52 117 b 61 -41 99 -200 173 -341 b 245 -476 361 -604 511 -653 b 664 -703 824 -633 927 -517 b 1042 -386 1098 -206 1140 -39 b 1194 174 1227 393 1257 611 b 1279 767 1299 924 1314 1081 b 1324 907 1336 734 1355 561 b 1380 315 1410 59 1506 -171 b 1545 -264 1606 -358 1709 -387 b 1814 -416 1895 -348 1959 -272 b 2033 -183 2089 -79 2137 27 b 2190 145 2235 267 2275 391 b 2286 426 2297 461 2307 496 b 2313 418 2321 340 2329 262 b 2357 8 2387 -255 2479 -495 b 2500 -551 2526 -605 2556 -656 b 2569 -677 2595 -694 2621 -685 b 2644 -678 2653 -650 2641 -629 b 2525 -430 2482 -203 2446 21 b 2409 255 2384 490 2368 725 b 2402 867 2431 1010 2458 1153 b 2506 1412 2552 1678 2537 1943 b 2534 1996 2527 2050 2507 2099 b 2492 2134 2469 2183 2424 2174 b 2375 2165 2351 2102 2337 2061 b 2318 2005 2311 1944 2305 1884 b 2276 1614 2274 1340 2278 1068 b 2281 903 2289 737 2301 572 b 2241 352 2168 130 2060 -70 b 2009 -164 1945 -269 1857 -333 b 1750 -410 1631 -344 1570 -243 b 1511 -144 1480 -27 1454 83 b 1427 199 1410 317 1395 435 b 1366 668 1349 903 1336 1138 b 1333 1178 1331 1219 1329 1259 b 1330 1272 1331 1286 1332 1300 b 1335 1345 1256 1368 1251 1316 b 1215 954 1184 593 1129 234 b 1103 61 1070 -113 1011 -278 b 958 -424 868 -574 713 -627 b 549 -682 390 -586 286 -464 b 190 -350 133 -206 103 -61 b 42 235 85 596 304 822 b 369 889 457 940 553 940 b 642 941 717 891 773 824 b 888 684 936 484 942 306 b 942 292 967 285 967 301 b 958 561 814 1062 455 951 z m 2344 1528 b 2346 1654 2349 1780 2359 1906 b 2364 1963 2370 2022 2391 2076 b 2400 2101 2417 2147 2449 2139 b 2477 2131 2490 2075 2496 2050 b 2525 1935 2515 1806 2507 1689 b 2498 1564 2481 1440 2460 1316 b 2432 1149 2400 982 2362 816 b 2348 1053 2342 1291 2344 1528 z"},"g":{"x_min":0,"x_max":455,"ha":455,"o":"m 469 295 b 437 272 408 247 379 220 b 376 255 371 291 362 325 b 355 354 329 457 281 422 b 272 416 264 406 257 394 b 199 420 139 407 88 369 b 38 333 -3 277 -20 218 b -37 160 -31 68 44 56 b 107 46 154 132 180 177 b 219 242 242 315 283 379 b 288 387 291 397 302 398 b 316 399 314 372 315 362 b 316 347 315 332 316 317 b 316 275 315 233 312 192 b 311 177 310 163 309 148 b 306 145 303 142 300 139 b 248 82 198 22 163 -47 b 138 -95 108 -177 162 -217 b 222 -261 291 -215 324 -160 b 365 -92 374 -8 380 69 b 383 107 383 146 382 185 b 414 217 449 248 486 275 b 498 284 481 303 469 295 z m 231 343 b 213 304 194 266 173 228 b 151 192 123 139 82 122 b 69 117 61 112 53 124 b 47 132 47 150 48 159 b 49 182 57 204 66 225 b 81 260 104 291 132 318 b 160 344 206 383 247 375 b 241 364 236 353 231 343 z m 273 -40 b 263 -72 249 -103 230 -130 b 221 -143 209 -159 194 -166 b 170 -178 167 -157 168 -137 b 171 -51 242 30 296 91 b 298 94 301 97 303 100 b 297 53 287 5 273 -40 z"},"j":{"x_min":0,"x_max":157,"ha":157,"o":"m 173 277 b 152 252 123 232 94 214 b 92 264 89 314 89 363 b 90 413 4 440 -1 381 b -8 305 1 228 7 151 b -17 131 -40 109 -61 85 b -106 29 -154 -88 -70 -135 b -37 -154 -3 -139 25 -118 b 64 -87 78 -35 86 12 b 96 68 97 124 95 181 b 131 206 166 231 191 264 b 199 273 181 286 173 277 z m 11 -22 b 10 -42 9 -63 3 -82 b -9 -120 -56 -133 -79 -95 b -124 -21 -44 71 10 119 b 10 117 10 115 10 112 b 13 68 13 23 11 -22 z m 30 472 b 34 471 38 471 42 474 b 67 497 86 523 102 553 b 111 571 133 607 109 624 b 87 639 64 612 53 597 b 46 587 40 577 36 566 b 33 578 30 590 24 601 b 14 623 -11 638 -28 613 b -49 584 -30 544 -14 518 b -6 504 11 474 30 472 z"},"i":{"x_min":0,"x_max":214,"ha":214,"o":"m 223 276 b 206 232 191 186 174 142 b 164 118 108 -20 82 50 b 48 145 64 256 66 355 b 66 399 -7 422 -14 371 b -25 298 -23 223 -13 150 b -5 96 11 14 69 -9 b 120 -29 153 27 172 66 b 202 130 222 199 246 266 b 251 278 229 290 223 276 z m 32 453 b 48 474 124 549 86 578 b 68 592 47 575 35 561 b 24 549 18 534 12 518 b 10 530 7 542 2 553 b -3 563 -22 566 -23 552 b -24 522 -13 485 8 461 b 10 451 25 444 32 453 z"},"y":{"x_min":0,"x_max":316,"ha":316,"o":"m 332 277 b 310 252 281 232 252 214 b 251 264 248 314 248 363 b 248 412 168 438 158 386 b 157 385 157 385 157 384 b 146 350 137 316 128 282 b 119 253 110 211 88 189 b 70 171 66 191 62 208 b 59 223 58 239 57 255 b 56 294 61 334 58 373 b 55 416 -14 441 -22 389 b -32 334 -30 268 -13 215 b -2 181 24 135 67 142 b 99 148 119 182 130 209 b 141 234 149 261 155 287 b 157 242 162 197 166 151 b 141 131 118 109 98 85 b 52 29 4 -88 88 -135 b 121 -154 155 -139 183 -118 b 223 -87 236 -35 244 12 b 254 68 255 124 254 181 b 289 206 324 231 349 264 b 357 273 339 286 332 277 z m 169 -22 b 168 -42 167 -63 161 -82 b 150 -120 102 -133 80 -95 b 34 -21 114 71 168 119 b 168 117 168 115 168 112 b 171 68 171 23 169 -22 z"},"@":{"x_min":0,"x_max":1622,"ha":1622,"o":"m 1552 61 b 1486 -129 1384 -312 1245 -459 b 1105 -607 916 -755 705 -767 b 512 -779 343 -651 254 -487 b 153 -302 137 -80 150 126 b 175 533 339 927 614 1228 b 740 1366 913 1494 1109 1473 b 1195 1465 1279 1428 1333 1359 b 1399 1274 1413 1161 1413 1058 b 1412 855 1336 651 1207 495 b 1194 480 1156 420 1125 429 b 1090 440 1087 522 1084 549 b 1079 598 1079 646 1080 695 b 1081 720 1039 732 1033 711 b 1032 710 1031 709 1030 707 b 994 614 962 518 916 428 b 895 387 871 345 838 313 b 818 294 792 275 763 280 b 730 285 719 315 713 344 b 693 427 714 526 749 603 b 767 642 792 682 822 714 b 835 728 854 747 874 746 b 910 744 924 696 934 669 b 939 654 967 652 962 670 b 949 711 935 756 897 781 b 860 805 817 808 779 783 b 701 733 658 621 643 533 b 629 450 627 319 710 268 b 791 220 864 291 905 355 b 963 445 998 549 1034 651 b 1036 583 1042 512 1071 453 b 1084 424 1109 395 1144 401 b 1157 403 1169 409 1179 418 b 1211 444 1238 481 1263 514 b 1328 600 1377 698 1409 801 b 1441 905 1456 1017 1450 1126 b 1444 1231 1421 1340 1348 1420 b 1208 1575 970 1580 793 1493 b 591 1393 436 1199 322 1010 b 203 814 121 598 81 372 b 40 145 34 -100 99 -323 b 160 -532 300 -727 512 -800 b 732 -875 950 -780 1116 -634 b 1282 -488 1421 -304 1513 -102 b 1535 -52 1555 0 1571 52 b 1575 63 1556 73 1552 61 z"},".":{"x_min":0,"x_max":183,"ha":183,"o":"m 131 -17 b 120 11 108 40 94 67 b 84 87 44 88 51 59 b 59 28 71 -3 82 -33 b 94 -63 144 -52 131 -17 z"},"p":{"x_min":0,"x_max":506,"ha":506,"o":"m 518 250 b 471 201 418 159 360 125 b 331 108 301 93 270 84 b 254 80 237 77 220 77 b 242 97 262 120 278 141 b 309 181 335 226 347 275 b 362 330 375 477 288 481 b 247 483 220 450 201 418 b 173 372 156 320 143 268 b 115 156 103 41 94 -74 b 87 -161 82 -248 79 -335 b 78 -313 76 -292 74 -272 b 67 -190 65 -107 65 -25 b 66 139 83 303 97 466 b 101 511 24 533 16 482 b -10 313 -22 143 -19 -28 b -17 -110 -10 -191 0 -272 b 11 -351 22 -441 66 -509 b 76 -525 117 -530 108 -501 b 105 -493 103 -485 100 -476 b 103 -359 109 -243 117 -126 b 122 -70 126 -13 132 44 b 137 41 142 39 146 39 b 299 26 440 129 539 234 b 549 245 528 260 518 250 z m 142 121 b 149 162 156 203 166 244 b 180 302 198 361 231 411 b 246 434 297 488 317 433 b 327 408 315 371 308 348 b 294 295 267 247 232 205 b 206 174 171 149 142 121 z"},"X":{"x_min":0,"x_max":1296,"ha":1296,"o":"m 1528 1180 b 1602 1240 1678 1298 1758 1350 b 1799 1376 2041 1529 2062 1444 b 2066 1430 2092 1429 2087 1445 b 2067 1525 1971 1489 1920 1467 b 1839 1433 1763 1388 1691 1338 b 1542 1234 1402 1115 1270 991 b 1134 863 1006 726 884 586 b 844 704 803 823 756 938 b 683 1114 581 1320 366 1334 b 326 1337 338 1273 372 1271 b 570 1255 650 1028 713 871 b 757 758 796 643 835 528 b 736 412 640 293 546 172 b 480 89 414 5 341 -72 b 305 -111 264 -151 212 -168 b 162 -184 109 -170 58 -180 b 41 -184 55 -205 65 -208 b 239 -254 361 -99 459 19 b 573 156 679 299 793 436 b 811 457 828 478 846 499 b 868 435 890 371 914 308 b 1034 -12 1215 -376 1537 -534 b 1701 -614 1909 -624 2056 -501 b 2068 -491 2049 -469 2037 -479 b 1892 -594 1693 -576 1541 -487 b 1390 -399 1270 -257 1179 -109 b 1052 98 973 327 895 556 b 1089 780 1297 993 1528 1180 z"},"*":{"x_min":0,"x_max":566,"ha":566,"o":"m 494 1352 b 439 1349 385 1335 332 1318 b 369 1356 407 1392 448 1426 b 470 1446 434 1483 415 1465 b 373 1425 334 1383 297 1338 b 296 1414 297 1489 302 1564 b 303 1577 280 1583 278 1568 b 270 1488 261 1408 256 1329 b 221 1371 188 1415 155 1458 b 146 1469 129 1459 139 1447 b 176 1395 215 1345 254 1295 b 254 1294 254 1293 254 1292 b 189 1270 123 1248 57 1230 b 42 1226 55 1204 68 1208 b 124 1222 178 1240 233 1256 b 194 1203 158 1148 125 1092 b 118 1080 138 1065 145 1077 b 177 1129 212 1179 251 1226 b 249 1159 249 1091 255 1023 b 256 997 303 982 303 1013 b 302 1088 300 1162 298 1237 b 341 1179 385 1121 435 1070 b 452 1052 483 1068 465 1091 b 415 1153 358 1210 305 1270 b 303 1272 302 1274 300 1276 b 367 1294 434 1307 502 1317 b 526 1321 515 1353 494 1352 z"},"Y":{"x_min":0,"x_max":2611,"ha":2611,"o":"m 1397 262 b 1341 224 1270 201 1208 239 b 1157 271 1125 327 1103 381 b 1047 520 1040 674 1039 822 b 1038 978 1053 1135 1030 1290 b 1024 1335 1015 1397 975 1426 b 930 1459 879 1429 844 1396 b 744 1300 667 1182 584 1073 b 503 965 411 851 294 781 b 235 746 146 728 100 793 b 78 822 32 795 57 763 b 143 655 278 723 364 792 b 462 870 541 969 616 1069 b 694 1172 767 1280 858 1371 b 887 1400 938 1439 973 1396 b 993 1371 991 1336 989 1305 b 985 1232 982 1158 977 1085 b 967 937 952 789 964 642 b 974 512 1000 373 1077 265 b 1149 165 1269 126 1382 181 b 1500 239 1586 364 1653 474 b 1806 723 1904 1001 1980 1282 b 2000 1353 2012 1427 2033 1497 b 2039 1518 2045 1534 2069 1536 b 2094 1538 2110 1517 2123 1497 b 2142 1468 2159 1436 2173 1404 b 2202 1337 2219 1264 2233 1193 b 2246 1124 2259 1055 2267 986 b 2292 772 2286 553 2249 341 b 2221 319 2193 297 2165 274 b 2054 182 1949 82 1852 -25 b 1752 -136 1651 -255 1580 -387 b 1528 -485 1464 -642 1587 -717 b 1703 -788 1849 -699 1933 -618 b 2030 -523 2095 -401 2151 -280 b 2246 -77 2308 143 2337 366 b 2345 372 2354 378 2363 384 b 2423 426 2486 463 2554 491 b 2571 498 2556 522 2541 516 b 2471 487 2405 450 2342 407 b 2347 462 2351 517 2353 572 b 2362 862 2320 1160 2191 1422 b 2168 1469 2139 1545 2082 1562 b 2031 1577 2010 1527 2000 1487 b 1962 1332 1915 1180 1856 1032 b 1798 887 1739 741 1664 603 b 1598 481 1514 342 1397 262 z m 2210 159 b 2174 23 2126 -109 2066 -236 b 2012 -349 1949 -466 1857 -553 b 1803 -604 1601 -744 1583 -594 b 1574 -529 1602 -460 1629 -403 b 1661 -335 1703 -274 1747 -215 b 1889 -26 2055 148 2241 294 b 2232 249 2222 203 2210 159 z"},"c":{"x_min":0,"x_max":382,"ha":382,"o":"m 395 276 b 345 219 155 -50 75 85 b 42 141 53 213 73 270 b 84 302 99 330 121 355 b 127 362 144 384 154 383 b 176 381 173 332 172 319 b 171 303 198 296 200 313 b 203 347 202 398 169 419 b 135 440 83 428 53 405 b -25 344 -43 199 -8 112 b 8 74 37 36 77 21 b 115 7 163 21 197 40 b 287 90 349 185 415 262 b 423 272 404 286 395 276 z"},"!":{"x_min":0,"x_max":213,"ha":213,"o":"m 161 1548 b 160 1567 123 1589 117 1562 b 102 1495 99 1426 93 1358 b 87 1287 82 1216 78 1145 b 68 1006 63 865 58 725 b 49 442 47 159 56 -124 b 57 -171 143 -196 142 -140 b 136 141 133 422 138 703 b 140 841 144 980 149 1118 b 151 1189 154 1261 157 1332 b 160 1404 166 1476 161 1548 z m 75 -272 b 70 -305 72 -339 73 -373 b 73 -407 135 -423 134 -385 b 132 -349 132 -312 126 -276 b 121 -251 79 -243 75 -272 z"},"/":{"x_min":0,"x_max":1572,"ha":1572,"o":"m 1439 1716 b 962 1128 573 463 276 -233 b 192 -431 117 -632 51 -837 b 42 -864 89 -888 100 -859 b 369 -151 711 526 1140 1151 b 1259 1325 1385 1494 1514 1660 b 1546 1700 1472 1756 1439 1716 z"},"[":{"x_min":0,"x_max":794,"ha":794,"o":"m 732 1704 b 670 1723 611 1746 546 1757 b 485 1767 422 1773 360 1774 b 313 1774 251 1781 213 1749 b 171 1714 176 1644 172 1595 b 145 1333 120 1070 98 807 b 77 543 61 277 54 12 b 50 -120 49 -251 51 -383 b 53 -505 52 -630 66 -752 b 79 -866 131 -978 248 -1015 b 374 -1055 493 -994 600 -932 b 641 -909 585 -850 547 -870 b 463 -914 355 -971 258 -932 b 178 -900 164 -801 159 -725 b 144 -491 148 -255 153 -21 b 163 455 199 931 238 1405 b 244 1472 250 1539 255 1605 b 257 1628 253 1670 268 1690 b 283 1709 322 1707 344 1709 b 408 1714 474 1713 538 1707 b 603 1701 669 1698 731 1680 b 749 1676 747 1700 732 1704 z"},"6":{"x_min":0,"x_max":970,"ha":970,"o":"m 458 -324 b 575 -281 684 -201 763 -106 b 841 -13 913 118 868 241 b 819 377 666 410 538 418 b 424 426 310 407 201 370 b 242 516 302 656 374 788 b 433 896 502 997 587 1087 b 631 1133 680 1176 732 1213 b 773 1241 862 1288 900 1231 b 907 1221 926 1228 919 1240 b 895 1281 845 1303 799 1304 b 735 1306 679 1270 629 1233 b 524 1154 435 1055 362 946 b 237 759 141 546 90 326 b 87 324 83 322 80 321 b 61 311 67 289 80 279 b 72 240 66 202 61 163 b 44 29 37 -123 116 -239 b 196 -355 334 -368 458 -324 z m 449 385 b 563 399 718 396 802 305 b 894 205 847 66 779 -32 b 715 -126 621 -204 517 -251 b 422 -295 284 -314 207 -225 b 132 -139 142 -3 151 102 b 158 173 170 244 187 313 b 271 347 358 374 449 385 z"},"r":{"x_min":0,"x_max":366,"ha":366,"o":"m 378 302 b 351 276 316 250 277 250 b 247 251 211 268 196 295 b 180 323 178 359 165 389 b 159 404 152 430 131 428 b 107 426 102 386 97 368 b 87 334 81 298 76 263 b 73 238 69 212 66 187 b 63 247 64 307 68 367 b 70 415 -14 439 -18 384 b -23 316 -21 247 -13 179 b -5 116 4 44 42 -9 b 49 -19 76 -25 79 -7 b 83 14 83 37 81 60 b 86 124 95 188 104 251 b 110 295 119 337 131 379 b 139 404 132 374 132 363 b 132 348 132 332 134 316 b 142 259 183 210 243 207 b 304 203 359 241 399 282 b 408 292 388 311 378 302 z"},"2":{"x_min":0,"x_max":1102,"ha":1102,"o":"m 165 -379 b 310 -387 436 -271 526 -171 b 569 -122 609 -72 647 -19 b 702 -6 757 5 812 11 b 881 19 953 26 1016 -8 b 1051 -26 1067 27 1033 41 b 968 68 900 69 831 61 b 783 56 735 48 687 39 b 795 203 877 386 931 574 b 972 717 1001 871 978 1020 b 960 1133 898 1266 771 1283 b 629 1301 500 1196 430 1082 b 382 1004 296 785 444 755 b 459 752 457 773 444 776 b 365 793 384 897 401 953 b 417 1007 442 1057 475 1101 b 539 1186 656 1281 770 1256 b 890 1229 919 1078 920 974 b 922 849 891 727 854 608 b 785 390 677 185 537 4 b 420 -28 305 -71 199 -129 b 146 -158 81 -200 57 -258 b 27 -329 103 -376 165 -379 z m 139 -266 b 145 -256 153 -246 161 -237 b 180 -216 202 -200 226 -185 b 303 -135 391 -97 480 -66 b 423 -134 359 -196 284 -243 b 259 -258 233 -271 206 -280 b 191 -285 145 -302 129 -292 b 128 -284 137 -269 139 -266 z"},"{":{"x_min":0,"x_max":817,"ha":817,"o":"m 762 1793 b 688 1846 598 1804 557 1733 b 531 1689 519 1638 504 1590 b 485 1530 466 1469 446 1409 b 371 1174 291 941 205 710 b 156 577 106 445 53 313 b 35 268 101 234 134 261 b 134 261 137 262 141 258 b 149 251 155 244 160 235 b 172 214 180 191 186 167 b 199 116 205 62 211 9 b 224 -100 234 -210 248 -320 b 262 -431 280 -542 309 -650 b 336 -748 371 -846 432 -928 b 498 -1016 595 -1075 706 -1080 b 755 -1081 739 -1007 698 -1003 b 468 -984 402 -701 365 -516 b 343 -402 330 -286 317 -170 b 305 -59 299 57 273 166 b 260 219 238 278 195 315 b 186 323 176 330 165 336 b 315 734 449 1139 563 1549 b 577 1602 588 1657 612 1706 b 635 1753 695 1810 750 1777 b 763 1770 775 1784 762 1793 z m 134 262 b 135 262 136 263 137 264 b 136 263 135 262 134 262 z"},"9":{"x_min":0,"x_max":1225,"ha":1225,"o":"m 408 892 b 472 964 545 1027 624 1082 b 679 1120 851 1235 898 1137 b 903 1127 922 1127 920 1141 b 909 1217 821 1233 758 1222 b 677 1208 604 1162 538 1116 b 404 1020 288 898 200 759 b 109 616 30 442 54 268 b 65 191 112 115 194 105 b 275 96 350 147 409 196 b 546 308 650 460 741 611 b 787 687 830 766 870 846 b 889 883 906 921 925 959 b 937 981 949 1003 964 1024 b 980 1047 1000 1088 1035 1065 b 1071 1040 1088 979 1098 939 b 1110 892 1118 843 1123 794 b 1133 700 1131 605 1124 511 b 1109 328 1068 147 998 -22 b 961 -111 917 -206 853 -280 b 830 -306 768 -369 731 -334 b 699 -303 714 -239 723 -200 b 764 -5 891 156 1006 314 b 1029 346 972 389 948 358 b 843 219 738 71 683 -96 b 659 -168 627 -265 662 -338 b 698 -413 783 -429 849 -383 b 916 -337 957 -263 994 -192 b 1036 -110 1071 -24 1099 65 b 1153 241 1177 426 1175 611 b 1174 706 1166 801 1144 893 b 1129 961 1106 1060 1041 1099 b 969 1143 914 1050 882 997 b 836 918 795 835 750 755 b 659 595 557 437 425 307 b 371 253 285 175 202 178 b 118 182 131 323 137 378 b 160 570 281 752 408 892 z"}," ":{"x_min":0,"x_max":302,"ha":302,"o":""},"I":{"x_min":0,"x_max":769,"ha":769,"o":"m 71 1269 b 207 1349 348 1420 495 1477 b 497 1478 499 1479 501 1480 b 464 902 456 320 533 -255 b 542 -319 552 -383 563 -446 b 411 -512 263 -590 124 -680 b 112 -688 128 -705 139 -698 b 278 -616 420 -540 569 -478 b 571 -490 573 -502 576 -514 b 590 -589 605 -663 649 -727 b 664 -751 701 -735 690 -707 b 663 -643 656 -572 646 -504 b 643 -486 640 -468 638 -450 b 697 -427 757 -407 818 -393 b 861 -384 905 -377 949 -375 b 979 -374 1028 -370 1042 -404 b 1050 -427 1088 -418 1077 -393 b 1050 -326 960 -336 903 -343 b 810 -354 720 -382 633 -417 b 628 -373 622 -328 617 -284 b 599 -133 587 18 579 169 b 563 470 565 772 577 1074 b 582 1222 590 1369 599 1517 b 712 1558 831 1592 950 1591 b 976 1591 963 1626 942 1627 b 826 1632 711 1596 601 1554 b 602 1564 602 1575 603 1586 b 606 1638 514 1664 510 1604 b 508 1574 506 1544 504 1514 b 496 1511 488 1507 481 1504 b 334 1442 191 1372 54 1289 b 42 1281 59 1262 71 1269 z"},"H":{"x_min":0,"x_max":2139,"ha":2139,"o":"m 650 423 b 442 392 238 333 56 226 b 39 215 61 190 76 195 b 253 256 431 314 610 370 b 659 378 708 385 757 389 b 764 211 779 33 806 -143 b 816 -207 829 -270 843 -333 b 856 -393 871 -456 897 -512 b 903 -524 928 -529 927 -511 b 925 -459 914 -407 906 -356 b 897 -301 888 -246 881 -191 b 867 -79 857 32 850 145 b 845 228 842 311 841 395 b 951 400 1061 396 1170 379 b 1492 327 1797 143 1916 -172 b 1921 -187 1926 -202 1931 -216 b 1933 -232 1935 -248 1938 -263 b 1950 -347 1962 -430 1982 -512 b 1991 -549 2002 -584 2016 -618 b 2028 -647 2043 -675 2067 -700 b 2068 -700 2069 -701 2070 -702 b 2071 -702 2071 -703 2072 -704 b 2081 -713 2099 -708 2093 -694 b 2037 -571 2026 -432 2010 -299 b 1993 -150 1979 0 1970 150 b 1960 342 1956 534 1958 726 b 1983 731 2008 735 2033 739 b 2053 742 2072 745 2092 747 b 2101 748 2109 749 2118 750 b 2123 750 2165 751 2162 745 b 2152 732 2176 714 2186 727 b 2212 764 2150 779 2125 777 b 2069 774 2014 765 1959 754 b 1960 854 1964 953 1969 1053 b 1978 1222 1992 1391 2007 1560 b 2011 1606 1930 1629 1924 1576 b 1891 1298 1875 1017 1874 736 b 1734 707 1596 674 1458 638 b 1251 585 1045 527 840 466 b 839 581 841 695 844 809 b 847 937 852 1064 857 1191 b 858 1240 770 1265 768 1208 b 757 953 749 697 756 441 b 748 438 739 436 731 433 b 704 430 677 427 650 423 z m 1682 666 b 1746 681 1809 695 1873 709 b 1873 690 1873 672 1873 654 b 1874 421 1884 187 1909 -45 b 1853 57 1775 146 1681 218 b 1442 402 1142 458 847 443 b 1123 525 1402 600 1682 666 z"},"4":{"x_min":0,"x_max":1170,"ha":1170,"o":"m 104 -194 b 151 -198 199 -168 233 -139 b 311 -71 369 19 416 110 b 436 149 454 189 470 229 b 493 244 516 259 539 273 b 659 347 786 416 919 466 b 914 259 910 51 930 -155 b 937 -221 948 -286 965 -350 b 977 -393 989 -454 1040 -465 b 1060 -470 1062 -446 1050 -436 b 1038 -425 1039 -391 1037 -378 b 1033 -351 1028 -323 1025 -296 b 1017 -240 1013 -183 1010 -127 b 1005 -14 1007 100 1009 213 b 1010 308 1013 403 1016 498 b 1047 507 1079 515 1112 522 b 1131 526 1114 555 1097 551 b 1070 545 1043 539 1016 531 b 1020 659 1024 787 1028 915 b 1031 1046 1035 1178 1029 1309 b 1026 1352 954 1378 948 1325 b 923 1081 926 833 921 588 b 921 558 920 528 919 498 b 774 444 636 365 506 285 b 500 281 493 277 487 273 b 545 430 579 598 595 762 b 606 884 614 1012 589 1133 b 577 1188 557 1244 524 1290 b 504 1319 465 1354 429 1327 b 417 1318 434 1300 445 1307 b 482 1333 501 1252 506 1236 b 512 1218 517 1200 521 1181 b 531 1135 535 1087 535 1040 b 535 946 527 852 514 759 b 488 570 441 383 362 209 b 358 199 354 189 349 180 b 312 152 275 123 240 93 b 203 60 167 27 133 -9 b 103 -40 63 -81 52 -124 b 43 -159 68 -191 104 -194 z m 127 -69 b 177 3 249 64 318 119 b 292 72 263 27 230 -15 b 206 -47 180 -79 149 -104 b 142 -109 106 -139 99 -135 b 89 -130 123 -75 127 -69 z"},"D":{"x_min":0,"x_max":1911,"ha":1911,"o":"m 168 480 b 230 464 294 458 356 438 b 418 418 472 384 514 333 b 579 256 608 160 628 63 b 631 33 634 4 638 -26 b 640 -47 643 -67 646 -88 b 644 -89 642 -89 639 -90 b 527 -133 413 -185 325 -269 b 292 -301 251 -344 264 -394 b 279 -451 345 -464 396 -467 b 526 -474 662 -415 777 -359 b 970 -264 1150 -134 1311 11 b 1375 12 1439 9 1501 1 b 1549 -6 1652 -20 1657 -84 b 1658 -100 1688 -108 1687 -90 b 1677 19 1510 29 1430 34 b 1400 36 1370 37 1341 37 b 1356 52 1372 67 1388 82 b 1561 249 1715 446 1804 672 b 1848 783 1873 905 1854 1023 b 1836 1137 1769 1233 1675 1297 b 1470 1434 1188 1408 962 1346 b 728 1282 511 1159 328 1000 b 217 904 -130 558 168 480 z m 502 395 b 424 471 323 493 220 517 b 167 529 89 539 106 612 b 118 668 153 720 185 765 b 305 930 481 1063 659 1161 b 618 900 603 635 609 371 b 610 316 613 261 616 206 b 591 276 555 343 502 395 z m 351 -394 b 339 -393 327 -392 322 -382 b 315 -369 324 -352 330 -341 b 356 -294 406 -258 450 -228 b 512 -185 581 -152 651 -123 b 656 -156 662 -189 669 -222 b 673 -242 683 -286 706 -297 b 623 -338 534 -373 445 -389 b 414 -395 381 -398 351 -394 z m 1066 -75 b 974 -143 878 -207 777 -261 b 764 -268 750 -275 737 -282 b 735 -277 730 -273 726 -272 b 722 -272 715 -127 714 -100 b 731 -93 749 -87 766 -81 b 885 -42 1008 -16 1132 -2 b 1144 -1 1155 0 1166 2 b 1133 -25 1100 -50 1066 -75 z m 1334 1342 b 1449 1340 1568 1316 1663 1246 b 1753 1179 1800 1075 1800 963 b 1800 747 1671 541 1542 376 b 1444 249 1329 136 1205 34 b 1144 30 1082 23 1021 13 b 916 -5 812 -31 711 -65 b 707 -15 704 36 701 86 b 695 204 692 322 694 440 b 696 681 718 921 753 1159 b 755 1176 746 1191 733 1200 b 919 1290 1126 1345 1334 1342 z"},"^":{"x_min":0,"x_max":529,"ha":529,"o":"m 477 765 b 437 879 424 997 420 1117 b 417 1174 416 1232 413 1290 b 411 1335 415 1388 374 1417 b 361 1427 342 1429 331 1415 b 251 1316 211 1188 169 1069 b 124 940 88 808 50 676 b 47 663 70 651 74 666 b 113 792 161 915 210 1037 b 249 1135 288 1242 349 1330 b 348 1318 348 1307 348 1303 b 348 1278 348 1254 348 1229 b 349 1174 349 1118 352 1063 b 357 957 370 852 407 753 b 420 717 492 722 477 765 z"},"0":{"x_min":0,"x_max":711,"ha":711,"o":"m 126 526 b 93 398 65 267 64 135 b 63 12 80 -139 192 -213 b 312 -293 434 -220 508 -115 b 583 -8 615 122 636 249 b 661 398 667 549 654 699 b 642 831 623 972 554 1088 b 501 1176 405 1274 293 1257 b 173 1239 109 1120 78 1015 b 42 894 40 761 77 640 b 88 602 105 563 126 526 z m 83 913 b 98 1016 136 1139 225 1201 b 274 1235 334 1244 388 1219 b 441 1194 477 1146 503 1095 b 555 994 572 876 580 764 b 589 641 586 517 572 395 b 558 279 536 161 492 53 b 472 4 446 -43 412 -84 b 381 -121 337 -163 287 -165 b 230 -168 189 -118 168 -70 b 143 -10 140 61 140 126 b 140 234 159 339 183 444 b 215 407 254 377 298 360 b 313 353 319 374 305 380 b 260 398 221 431 189 471 b 195 495 201 519 207 543 b 217 582 149 616 138 574 b 137 569 135 564 134 559 b 124 580 115 602 108 623 b 76 716 69 816 83 913 z"},"F":{"x_min":0,"x_max":1558,"ha":1558,"o":"m 54 774 b 41 755 63 733 82 733 b 207 731 327 773 450 790 b 554 804 674 802 761 735 b 845 670 882 557 903 454 b 905 404 907 355 910 305 b 867 285 824 265 781 245 b 771 240 761 235 750 230 b 726 236 701 239 675 238 b 602 235 513 206 475 140 b 467 127 476 109 492 107 b 575 101 656 152 730 187 b 732 188 734 189 736 190 b 802 180 852 137 884 77 b 918 12 930 -62 940 -133 b 940 -139 941 -146 942 -152 b 942 -160 943 -168 943 -176 b 945 -213 941 -271 967 -303 b 972 -325 978 -346 986 -368 b 996 -399 1050 -407 1045 -365 b 1017 -150 1010 68 1003 285 b 1003 295 1002 306 1002 316 b 1078 350 1156 383 1236 409 b 1277 423 1319 435 1362 445 b 1404 455 1473 482 1511 451 b 1529 435 1550 463 1530 476 b 1500 496 1468 494 1434 489 b 1389 482 1345 471 1302 459 b 1212 434 1124 401 1038 364 b 1026 358 1013 353 1001 347 b 995 552 992 756 995 960 b 996 1088 999 1215 1003 1342 b 1003 1362 990 1378 974 1388 b 976 1389 978 1390 980 1391 b 1147 1468 1318 1532 1495 1580 b 1681 1632 1875 1674 2069 1677 b 2175 1678 2294 1670 2392 1627 b 2516 1572 2437 1448 2377 1375 b 2361 1355 2398 1328 2415 1347 b 2472 1406 2536 1489 2504 1575 b 2472 1659 2375 1683 2297 1698 b 2088 1740 1872 1708 1667 1661 b 1275 1571 898 1413 557 1199 b 373 1084 180 954 54 774 z m 545 143 b 580 167 618 183 661 190 b 657 188 653 186 650 185 b 620 172 582 150 545 143 z m 874 157 b 850 184 822 203 791 217 b 831 236 871 255 912 274 b 915 210 919 145 924 81 b 911 109 894 135 874 157 z m 899 585 b 875 652 841 714 786 760 b 707 828 598 846 497 841 b 372 834 252 796 128 785 b 226 917 358 1018 493 1111 b 625 1202 762 1283 905 1354 b 893 1098 892 842 899 585 z"},"`":{"x_min":0,"x_max":253,"ha":253,"o":"m 201 977 b 170 1055 134 1136 80 1201 b 65 1219 42 1200 53 1185 b 82 1112 119 1042 146 967 b 158 931 217 934 201 977 z"},"k":{"x_min":0,"x_max":404,"ha":404,"o":"m 394 158 b 371 86 292 128 258 164 b 242 180 228 199 213 216 b 201 231 186 244 173 258 b 237 263 307 312 335 365 b 345 383 353 411 330 424 b 304 439 268 414 249 400 b 209 371 178 329 154 285 b 150 285 146 286 142 287 b 129 289 124 275 131 266 b 134 263 136 259 138 256 b 129 235 120 215 112 195 b 94 149 82 102 75 54 b 73 75 71 96 70 116 b 63 199 59 281 58 364 b 56 530 70 695 92 860 b 98 907 16 930 7 877 b -23 705 -30 528 -22 354 b -18 269 -10 186 2 102 b 9 59 17 15 27 -27 b 35 -60 41 -102 70 -122 b 78 -127 92 -127 92 -115 b 93 -103 92 -92 91 -80 b 91 -79 91 -79 91 -79 b 90 27 111 133 157 228 b 190 175 222 117 282 90 b 334 66 406 86 418 147 b 421 161 399 173 394 158 z m 241 356 b 251 366 311 420 315 388 b 317 378 294 355 287 348 b 276 336 262 326 248 317 b 231 305 211 295 190 289 b 205 313 221 336 241 356 z"},"u":{"x_min":0,"x_max":400,"ha":400,"o":"m 411 282 b 391 263 381 233 368 209 b 351 176 336 140 313 111 b 302 97 283 78 271 99 b 264 112 264 134 264 148 b 261 186 265 225 267 263 b 270 313 183 339 177 283 b 157 220 149 147 108 94 b 96 78 73 65 66 91 b 61 108 59 126 59 144 b 58 183 65 221 65 259 b 64 296 -5 333 -16 285 b -31 219 -31 37 76 45 b 119 49 141 89 156 126 b 164 146 170 166 176 187 b 178 166 181 146 188 126 b 198 92 226 41 270 47 b 304 52 333 91 350 118 b 361 137 370 157 380 176 b 394 202 406 243 427 262 b 438 272 421 291 411 282 z"},"]":{"x_min":0,"x_max":777,"ha":777,"o":"m 726 820 b 725 955 723 1090 722 1225 b 721 1293 721 1360 720 1428 b 719 1485 722 1542 715 1599 b 709 1647 694 1698 655 1730 b 606 1770 545 1764 487 1751 b 344 1721 202 1683 63 1635 b 33 1624 60 1583 86 1590 b 202 1621 317 1651 433 1677 b 482 1688 560 1719 608 1695 b 645 1676 651 1622 653 1585 b 659 1471 651 1354 650 1239 b 649 1116 647 993 646 869 b 644 625 644 381 637 136 b 634 15 628 -107 620 -229 b 612 -345 603 -461 581 -575 b 559 -685 532 -820 424 -878 b 335 -925 225 -918 127 -916 b 75 -915 92 -993 135 -997 b 234 -1005 338 -1008 433 -974 b 538 -936 599 -852 632 -748 b 671 -628 687 -501 698 -376 b 710 -245 716 -113 721 20 b 730 286 727 553 726 820 z"},"U":{"x_min":0,"x_max":2017,"ha":2017,"o":"m 1309 -202 b 1233 -264 1133 -262 1064 -190 b 997 -121 964 -23 942 70 b 917 178 905 288 902 399 b 895 626 918 853 925 1080 b 927 1137 928 1193 923 1250 b 920 1290 919 1331 905 1370 b 878 1445 811 1471 737 1451 b 647 1428 564 1367 490 1313 b 449 1284 410 1253 369 1223 b 328 1193 285 1159 236 1141 b 187 1123 129 1123 97 1170 b 78 1199 32 1168 58 1143 b 127 1078 217 1094 292 1138 b 385 1191 466 1265 555 1326 b 620 1371 794 1499 863 1402 b 891 1362 882 1298 875 1253 b 866 1193 862 1133 856 1074 b 830 835 794 595 804 355 b 814 144 847 -124 1023 -266 b 1103 -330 1201 -343 1289 -286 b 1375 -230 1437 -139 1490 -52 b 1596 123 1671 323 1734 519 b 1737 437 1744 356 1753 274 b 1766 162 1781 48 1818 -60 b 1835 -112 1857 -161 1886 -208 b 1898 -227 1921 -242 1944 -235 b 1965 -228 1974 -202 1962 -183 b 1849 -1 1827 230 1808 439 b 1799 530 1794 621 1792 712 b 1841 889 1879 1069 1905 1250 b 1913 1308 1920 1365 1925 1423 b 1928 1454 1937 1521 1911 1546 b 1857 1599 1812 1385 1806 1357 b 1752 1122 1730 878 1731 636 b 1731 627 1732 618 1732 608 b 1670 413 1597 216 1496 38 b 1447 -49 1388 -138 1309 -202 z m 1808 1125 b 1818 1236 1826 1354 1863 1459 b 1867 1471 1880 1519 1892 1520 b 1906 1521 1901 1453 1900 1440 b 1897 1386 1889 1333 1882 1280 b 1861 1125 1831 970 1792 818 b 1793 921 1798 1023 1808 1125 z"},"o":{"x_min":0,"x_max":251,"ha":251,"o":"m 265 277 b 236 260 199 242 161 231 b 162 256 162 278 160 294 b 155 356 109 449 31 411 b -34 378 -47 283 5 233 b 6 231 8 230 10 228 b 6 204 5 179 9 154 b 16 119 37 78 79 78 b 133 78 153 144 160 206 b 204 217 248 239 281 259 b 292 266 276 283 265 277 z m 110 162 b 107 157 86 126 83 126 b 74 126 77 171 77 178 b 78 185 79 192 80 198 b 95 197 111 197 127 199 b 122 185 117 172 110 162 z m 133 224 b 117 222 100 221 84 222 b 88 241 92 259 95 278 b 99 312 33 339 24 300 b 21 285 18 271 15 256 b -35 319 49 437 106 377 b 139 343 144 278 133 224 z"},"N":{"x_min":0,"x_max":2402,"ha":2402,"o":"m 2200 208 b 2162 68 2101 -128 1929 -144 b 1774 -159 1660 19 1599 137 b 1526 278 1472 430 1427 582 b 1327 915 1276 1261 1226 1604 b 1226 1613 1227 1622 1227 1631 b 1230 1674 1154 1695 1151 1646 b 1131 1291 1112 936 1096 580 b 1089 409 1084 237 1069 66 b 1055 -90 1037 -260 972 -404 b 945 -464 906 -522 849 -557 b 776 -600 686 -593 611 -560 b 478 -501 367 -376 285 -259 b 117 -19 17 322 115 608 b 166 753 284 888 439 920 b 581 949 742 879 795 740 b 807 709 859 720 844 755 b 790 878 666 952 535 959 b 397 967 266 893 181 787 b -20 537 38 161 168 -108 b 235 -245 328 -370 442 -472 b 548 -567 701 -657 845 -589 b 979 -526 1025 -358 1059 -227 b 1105 -49 1124 135 1138 317 b 1167 708 1194 1098 1218 1489 b 1262 1185 1312 881 1399 587 b 1448 424 1505 259 1586 109 b 1649 -8 1755 -158 1901 -171 b 2059 -184 2155 -30 2207 97 b 2274 260 2315 434 2335 609 b 2355 788 2357 969 2346 1148 b 2335 1327 2311 1508 2249 1677 b 2198 1816 2087 2046 1904 2019 b 1827 2008 1761 1956 1725 1889 b 1680 1807 1673 1715 1668 1624 b 1667 1603 1707 1585 1712 1610 b 1735 1733 1771 1917 1923 1937 b 1990 1945 2036 1895 2073 1846 b 2116 1787 2148 1720 2173 1651 b 2228 1497 2254 1333 2266 1170 b 2279 1009 2283 846 2274 684 b 2265 523 2243 364 2200 208 z"},"+":{"x_min":0,"x_max":553,"ha":553,"o":"m 482 600 b 428 604 371 592 318 577 b 325 659 334 741 335 823 b 335 858 268 891 260 847 b 242 751 237 651 234 552 b 205 543 175 533 147 521 b 118 510 73 500 52 478 b 47 473 52 465 56 462 b 56 461 57 461 58 460 b 61 457 69 455 72 459 b 73 459 73 460 74 460 b 75 462 76 463 77 465 b 89 473 106 477 118 481 b 134 487 150 492 166 497 b 188 505 211 511 233 518 b 233 516 233 515 233 513 b 231 408 227 296 268 196 b 274 181 308 176 307 198 b 304 301 306 402 312 504 b 313 516 314 527 315 539 b 369 552 427 565 480 558 b 511 554 508 598 482 600 z"},"G":{"x_min":0,"x_max":1605,"ha":1605,"o":"m 119 718 b 67 561 39 393 54 228 b 67 76 121 -84 266 -158 b 407 -230 560 -146 668 -53 b 786 49 885 169 975 297 b 1077 442 1167 597 1230 763 b 1237 780 1244 799 1250 817 b 1265 672 1277 527 1282 382 b 1283 342 1283 301 1284 261 b 1224 193 1165 124 1110 52 b 1033 -45 960 -144 901 -253 b 848 -350 792 -470 815 -583 b 834 -675 924 -759 1022 -746 b 1131 -731 1208 -644 1253 -549 b 1307 -439 1325 -312 1340 -191 b 1356 -58 1363 75 1361 209 b 1360 238 1359 267 1358 296 b 1449 395 1544 490 1644 581 b 1657 594 1636 617 1623 606 b 1531 521 1442 433 1356 341 b 1347 541 1323 741 1292 939 b 1297 961 1302 982 1306 1005 b 1314 1060 1300 1123 1240 1138 b 1224 1142 1215 1129 1216 1115 b 1225 1043 1234 971 1242 899 b 1228 846 1210 793 1189 742 b 1135 613 1065 492 986 376 b 908 262 822 152 721 57 b 629 -29 493 -138 358 -114 b 221 -89 164 49 147 174 b 128 315 142 461 178 598 b 247 860 383 1110 564 1311 b 660 1417 780 1525 917 1573 b 1049 1620 1233 1579 1252 1417 b 1253 1407 1274 1403 1273 1416 b 1262 1534 1149 1625 1035 1640 b 882 1659 740 1574 627 1481 b 389 1288 214 1007 119 718 z m 1227 -336 b 1205 -433 1172 -541 1097 -610 b 1065 -640 1024 -664 980 -670 b 929 -678 893 -655 870 -609 b 817 -503 877 -371 926 -275 b 978 -174 1047 -81 1117 8 b 1170 78 1226 146 1284 212 b 1282 28 1267 -158 1227 -336 z"},"q":{"x_min":0,"x_max":473,"ha":473,"o":"m 338 44 b 354 69 373 92 391 115 b 429 164 467 212 506 259 b 514 269 496 282 488 273 b 449 228 411 183 373 137 b 357 117 342 97 325 77 b 317 67 300 54 290 40 b 290 140 297 240 292 339 b 289 383 221 410 203 377 b 144 408 69 383 29 329 b -15 268 -48 157 -11 85 b 3 58 31 41 61 48 b 98 57 120 91 137 123 b 167 180 178 244 198 305 b 196 210 191 116 198 21 b 205 -72 216 -185 272 -263 b 292 -292 328 -320 365 -306 b 401 -293 417 -247 423 -214 b 438 -140 419 -33 350 11 b 342 16 333 19 324 23 b 323 24 312 26 312 27 b 317 27 323 27 328 28 b 331 33 335 38 338 44 z m 148 223 b 139 195 92 54 50 80 b 29 93 40 143 44 164 b 50 193 59 223 72 249 b 94 292 133 330 181 326 b 168 292 159 258 148 223 z m 326 -14 b 337 -19 349 -28 357 -39 b 391 -85 396 -161 380 -214 b 375 -231 359 -273 337 -252 b 320 -234 315 -195 310 -173 b 299 -121 293 -68 291 -15 b 291 -10 291 -4 291 1 b 293 -2 296 -4 299 -5 b 306 -10 317 -10 326 -14 z"},"d":{"x_min":0,"x_max":516,"ha":516,"o":"m 524 -182 b 477 -177 468 -106 461 -69 b 453 -23 445 24 441 71 b 431 170 429 270 430 369 b 432 574 446 778 453 983 b 455 1028 378 1051 372 999 b 369 983 368 967 366 950 b 331 779 300 607 269 434 b 253 446 235 455 215 458 b 152 470 99 434 67 383 b -6 269 -44 108 -16 -25 b -5 -75 31 -144 92 -139 b 151 -133 184 -79 201 -29 b 245 95 263 227 283 357 b 284 355 285 352 286 350 b 293 333 324 334 320 356 b 315 377 305 397 292 413 b 292 416 293 419 293 423 b 311 524 329 626 348 728 b 341 588 341 448 344 310 b 347 200 355 91 378 -17 b 387 -65 400 -117 428 -158 b 451 -191 487 -203 526 -204 b 540 -204 535 -183 524 -182 z m 238 252 b 227 189 215 126 200 65 b 186 14 173 -59 128 -93 b 56 -148 53 -7 55 31 b 56 86 65 141 80 194 b 98 253 124 314 163 362 b 179 382 198 398 226 396 b 239 394 250 390 260 383 b 253 340 245 296 238 252 z"},"1":{"x_min":0,"x_max":850,"ha":850,"o":"m 70 896 b 165 969 262 1040 362 1107 b 409 1140 460 1183 513 1205 b 520 1208 532 1213 538 1212 b 547 1210 566 1180 568 1173 b 571 1159 568 1141 568 1128 b 568 1098 565 1068 562 1038 b 542 791 499 547 477 300 b 465 160 459 18 469 -123 b 469 -127 470 -131 471 -135 b 401 -154 331 -178 263 -204 b 228 -218 192 -232 157 -247 b 139 -255 102 -262 94 -282 b 92 -287 95 -292 99 -295 b 104 -298 108 -300 114 -297 b 119 -296 120 -292 120 -287 b 120 -287 120 -287 119 -287 b 135 -276 181 -263 192 -259 b 217 -249 243 -239 270 -231 b 321 -215 372 -202 424 -190 b 451 -184 477 -178 504 -173 b 508 -175 511 -176 515 -177 b 529 -179 546 -175 556 -165 b 567 -164 577 -162 588 -161 b 613 -158 639 -156 664 -155 b 681 -155 708 -151 730 -153 b 738 -172 763 -187 783 -175 b 805 -161 804 -133 789 -115 b 767 -91 730 -95 701 -97 b 655 -99 609 -105 563 -114 b 550 157 581 425 603 694 b 613 830 629 970 612 1105 b 607 1145 601 1220 554 1234 b 510 1248 463 1207 430 1185 b 301 1100 176 1010 54 915 b 42 906 60 888 70 896 z m 739 -121 b 737 -123 736 -124 735 -125 b 735 -125 735 -124 735 -124 b 736 -123 737 -122 739 -121 z"},"5":{"x_min":0,"x_max":1673,"ha":1673,"o":"m 66 825 b 80 827 95 829 110 831 b 125 833 121 851 110 854 b 291 980 503 1060 707 1140 b 740 1153 773 1165 806 1178 b 798 1148 790 1119 782 1089 b 765 1024 744 959 723 895 b 679 767 628 641 575 515 b 559 477 632 430 653 469 b 702 559 775 628 861 682 b 952 740 1056 789 1161 815 b 1260 839 1375 836 1457 768 b 1540 698 1551 574 1530 474 b 1506 363 1452 257 1393 161 b 1337 70 1271 -16 1198 -94 b 1123 -174 1040 -248 945 -302 b 870 -346 690 -411 703 -256 b 713 -127 804 -10 881 88 b 963 192 1057 286 1160 369 b 1173 380 1154 401 1142 391 b 1039 310 946 218 864 116 b 786 19 699 -93 674 -218 b 664 -267 663 -323 701 -361 b 734 -394 783 -403 828 -400 b 947 -393 1059 -322 1149 -249 b 1345 -92 1508 129 1590 368 b 1630 485 1641 620 1579 733 b 1519 842 1404 900 1282 908 b 1137 918 992 856 866 788 b 823 764 780 737 740 707 b 771 795 799 884 823 975 b 842 1049 861 1124 868 1200 b 925 1220 982 1239 1040 1256 b 1097 1273 1154 1288 1211 1301 b 1239 1308 1268 1314 1297 1320 b 1315 1324 1333 1327 1352 1330 b 1354 1330 1357 1331 1360 1331 b 1350 1313 1369 1282 1395 1283 b 1432 1284 1447 1321 1434 1353 b 1417 1392 1371 1396 1334 1389 b 1222 1369 1111 1338 1003 1302 b 959 1288 915 1273 871 1257 b 870 1273 866 1288 851 1293 b 836 1298 820 1286 826 1271 b 827 1268 829 1266 831 1264 b 829 1255 825 1246 822 1239 b 670 1181 520 1115 375 1043 b 263 987 154 924 54 847 b 44 840 54 823 66 825 z"}}}
